<svg width="347" height="344" viewBox="0 0 347 344" fill="none" xmlns="http://www.w3.org/2000/svg">
<g clip-path="url(#clip0_5_6)">
<path d="M204.918 0.0151286L209.995 1.58309L244.994 14.9994L247.794 16.7494L247.852 17.4494L249.719 17.1577L254.852 18.791L292.069 33.024L295.044 34.8906L295.161 35.824L297.377 35.4156L302.569 37.0489L342.292 52.2152L345.442 54.1985L346.084 60.0317L344.684 125.013L343.809 130.613L339.317 132.304L336.634 132.887L340.543 134.579L343.692 136.737L344.276 142.454L342.934 205.628L342.059 211.111L337.626 212.919L335.876 213.328L338.851 214.786L341.943 217.061L342.584 222.661L341.243 284.202L340.426 289.51L336.051 291.376L282.21 305.376L277.077 306.018L273.285 304.676L272.294 304.151L271.827 307.359L267.277 309.284L211.103 323.926L205.795 324.626L202.003 323.226L200.953 320.776L200.312 326.026L195.47 328.009L136.905 343.292L131.305 343.992L127.63 342.534L92.5148 319.552L89.9481 316.985L89.5982 314.535L86.74 314.885L83.2983 313.485L50.3991 291.961L48.2409 287.236H48.1827L50.3991 291.961L48.0078 289.57L47.6578 287.236L44.9745 287.528L41.7079 286.303L10.7929 266.061L8.57629 263.786L7.70131 258.478L5.60136 198.571L6.06802 193.262L10.9097 191.629L11.318 191.512L8.16808 189.646L5.89302 187.488L5.01804 182.063L2.85987 120.58L3.32653 115.155L8.22642 113.58L9.21806 113.289L5.42659 111.247L3.15153 109.205L2.21822 103.605L0.0156198 40.5135L0.540608 34.8554L5.44049 33.3971L8.35709 32.2888L66.1067 22.7806L71.6483 24.4138L73.5149 25.2305L73.7483 22.839L78.473 21.3807L81.5063 20.2724L136.923 11.1726L142.172 12.7475L143.806 13.3892L144.039 11.231L148.531 9.88938L151.739 8.72274L204.938 -0.0270538L204.918 0.0151286Z" fill="black"/>
<path d="M239.898 13.3988L204.922 0.0063591L209.963 1.59915L244.994 15.0041L239.898 13.3988Z" fill="black"/>
<path d="M143.991 11.2709L148.512 9.89853L151.696 8.7412L146.508 12.0608L143.991 11.2709Z" fill="black"/>
<path d="M143.991 11.2709L146.508 12.0608L144.413 18.3583L143.376 16.6796L143.991 11.2709Z" fill="black"/>
<path d="M8.58631 263.769L7.72751 258.473L8.36927 260.874L10.8265 266.074L8.58631 263.769Z" fill="black"/>
<path d="M7.72774 258.486L5.60705 198.598L6.24916 200.844L8.36951 260.886L7.72774 258.486Z" fill="black"/>
<path d="M247.775 16.7774L243.36 17.2065L239.913 13.3998L245.008 15.0051L247.775 16.7774Z" fill="black"/>
<path d="M247.775 16.7774L248.439 22.3076L244.767 23.7498L243.36 17.2065L247.775 16.7774Z" fill="#111111"/>
<path d="M6.08509 193.285L10.8819 191.616L13.7344 190.941L8.31366 194.516L6.08509 193.285Z" fill="black"/>
<path d="M6.08508 193.285L8.31366 194.516L6.2357 200.844L5.59359 198.598L6.08508 193.285Z" fill="black"/>
<path d="M180.652 25.9799L146.504 12.0588L151.692 8.73915L185.927 22.5626L180.652 25.9799Z" fill="black"/>
<path d="M178.505 32.4384L144.421 18.3674L146.515 12.07L180.663 25.991L178.505 32.4384Z" fill="black"/>
<path d="M5.87979 187.499L5.00732 182.07L5.64943 184.273L8.14301 189.665L5.87979 187.499Z" fill="black"/>
<path d="M41.7189 286.299L10.8282 266.084L8.37093 260.884L39.2523 281.004L41.7189 286.299Z" fill="black"/>
<path d="M170.927 25.1212L136.906 11.1764L142.18 12.7798L176.264 26.7364L170.927 25.1212Z" fill="black"/>
<path d="M243.352 17.2067L189.331 26.4657L185.934 22.5792L239.904 13.3999L243.352 17.2067Z" fill="black"/>
<path d="M73.7128 22.8626L78.4333 21.4445L81.4887 20.2952L76.1144 23.6962L73.7128 22.8626Z" fill="black"/>
<path d="M73.7128 22.8626L76.1145 23.6962L74.0012 30.1189L73.1529 28.3706L73.7128 22.8626Z" fill="black"/>
<path d="M244.752 23.7399L190.756 33.1047L189.324 26.4556L243.344 17.1966L244.752 23.7399Z" fill="#333333"/>
<path d="M5.0211 182.067L2.84482 120.601L3.48692 122.641L5.66321 184.269L5.0211 182.067Z" fill="black"/>
<path d="M3.34109 115.13L8.20532 113.559L11.0882 112.658L5.59269 116.19L3.34109 115.13Z" fill="black"/>
<path d="M3.34109 115.13L5.59268 116.19L3.48817 122.628L2.84607 120.589L3.34109 115.13Z" fill="black"/>
<path d="M286.937 31.3931L249.735 17.1487L254.845 18.7571L292.1 33.0133L286.937 31.3931Z" fill="black"/>
<path d="M184.198 27.6785L180.663 25.9944L185.939 22.5772L189.336 26.4637L184.198 27.6785Z" fill="black"/>
<path d="M39.5349 213.183L8.31936 194.5L13.7402 190.925L45.0547 209.497L39.5349 213.183Z" fill="black"/>
<path d="M184.198 27.6785L184.072 33.4531L178.505 32.4417L180.663 25.9944L184.198 27.6785Z" fill="#212121"/>
<path d="M3.11711 109.194L2.23108 103.627L2.87296 105.621L5.40436 111.215L3.11711 109.194Z" fill="black"/>
<path d="M37.3884 219.661L6.23629 200.826L8.31425 194.499L39.5297 213.182L37.3884 219.661Z" fill="black"/>
<path d="M184.198 27.6785L189.336 26.4637L190.768 33.1128L184.072 33.4531L184.198 27.6785Z" fill="#4A4A4A"/>
<path d="M44.9481 287.55L41.7062 286.291L39.2392 280.996L44.591 282.443L44.9481 287.55Z" fill="black"/>
<path d="M294.012 115.111L289.595 115.716L285.995 111.647L291.092 113.088L294.012 115.111Z" fill="black"/>
<path d="M39.3856 208.237L8.14762 189.66L5.65404 184.267L36.8808 202.741L39.3856 208.237Z" fill="black"/>
<path d="M44.9482 287.55L44.5911 282.443L51.3986 281.956L50.2892 286.973L44.9482 287.55Z" fill="#262626"/>
<path d="M178.934 28.5744L174.309 29.0327L170.926 25.124L176.263 26.7392L178.934 28.5744Z" fill="black"/>
<path d="M294.012 115.111L294.648 120.658L291.027 122.377L289.594 115.716L294.012 115.111Z" fill="#0F0F0F"/>
<path d="M178.934 28.5744L179.671 34.2087L175.747 35.7111L174.309 29.0327L178.934 28.5744Z" fill="#161616"/>
<path d="M195.547 26.4651L190.247 29.9099L187.546 29.0523L192.141 27.6096L195.547 26.4651Z" fill="black"/>
<path d="M294.086 109.175L289.653 110.743L291.238 105.375L294.869 103.695L294.086 109.175Z" fill="black"/>
<path d="M2.23986 103.631L0.00536249 40.5246L0.64747 42.3464L2.88174 105.625L2.23986 103.631Z" fill="black"/>
<path d="M109.216 38.1875L76.1171 23.6822L81.4914 20.2812L114.686 34.6845L109.216 38.1875Z" fill="black"/>
<path d="M107.032 44.7768L73.9984 30.1156L76.1116 23.6928L109.211 38.1982L107.032 44.7768Z" fill="black"/>
<path d="M47.9908 289.547L47.1385 284.107L47.9206 286.661L50.39 291.982L47.9908 289.547Z" fill="black"/>
<path d="M300.302 196.029L338.882 214.789L333.786 213.525L295.255 194.76L300.302 196.029Z" fill="black"/>
<path d="M106.752 208.032L49.6707 220.569L48.2153 213.822L105.321 201.394L106.752 208.032Z" fill="#3C3C3C"/>
<path d="M340.416 289.51L336.032 291.366L337.718 286.332L341.248 284.18L340.416 289.51Z" fill="black"/>
<path d="M71.6035 24.4305L104.632 38.9738L99.0376 37.3491L66.0806 22.8171L71.6035 24.4305Z" fill="black"/>
<path d="M42.8016 221.023L44.5979 282.445L39.2461 280.998L37.3968 219.668L42.8016 221.023Z" fill="#1B1B1B"/>
<path d="M49.6707 220.575L51.3946 281.965L44.5872 282.452L42.7909 221.03L49.6707 220.575Z" fill="#444444"/>
<path d="M8.34363 32.3077L2.77167 35.794L0.496952 34.9135L5.43045 33.4471L8.34363 32.3077Z" fill="black"/>
<path d="M295.692 40.5769L294.861 103.687L291.231 105.368L292.025 42.1118L295.692 40.5769Z" fill="black"/>
<path d="M0.653158 42.3501L0.0110506 40.5283L0.510062 34.9171L2.78467 35.7975L0.653158 42.3501Z" fill="black"/>
<path d="M174.305 29.0411L118.008 38.6908L114.681 34.6983L170.923 25.1324L174.305 29.0411Z" fill="black"/>
<path d="M175.743 35.705L119.469 45.465L118.007 38.6762L174.304 29.0266L175.743 35.705Z" fill="#373737"/>
<path d="M37.1457 133.161L5.57731 116.206L11.0729 112.673L42.7439 129.52L37.1457 133.161Z" fill="black"/>
<path d="M46.1428 224.962L47.9131 286.65L47.131 284.096L45.3579 222.57L46.1428 224.962Z" fill="black"/>
<path d="M272.527 302.744L273.285 304.669L272.294 304.144L272.527 302.744Z" fill="black"/>
<path d="M295.057 34.8836L290.583 35.3576L286.933 31.394L292.096 33.0142L295.057 34.8836Z" fill="black"/>
<path d="M34.9804 139.751L3.47553 122.638L5.57992 116.2L37.1483 133.156L34.9804 139.751Z" fill="black"/>
<path d="M42.8389 215.274L39.5327 213.189L45.0523 209.503L48.2211 213.82L42.8389 215.274Z" fill="#0B0B0B"/>
<path d="M295.057 34.8836L295.701 40.5733L292.035 42.1086L290.583 35.3576L295.057 34.8836Z" fill="#0E0E0E"/>
<path d="M342.563 222.647L341.24 284.179L337.71 286.331L338.999 224.663L342.563 222.647Z" fill="black"/>
<path d="M42.8389 215.274L42.7967 221.022L37.392 219.668L39.5327 213.189L42.8389 215.274Z" fill="#191919"/>
<path d="M36.9964 128.066L5.40561 111.221L2.87432 105.628L34.4557 122.359L36.9964 128.066Z" fill="black"/>
<path d="M42.8389 215.274L48.2211 213.82L49.6765 220.567L42.7967 221.022L42.8389 215.274Z" fill="#4C4C4C"/>
<path d="M42.6709 209.338L39.3907 208.232L36.8868 202.736L42.3062 204.064L42.6709 209.338Z" fill="black"/>
<path d="M42.6708 209.338L42.3061 204.064L49.2059 203.617L48.0861 208.859L42.6708 209.338Z" fill="#2B2B2B"/>
<path d="M336.029 291.358L282.224 305.394L283.828 300.304L337.716 286.323L336.029 291.358Z" fill="black"/>
<path d="M195.547 26.4651L231.997 41.1833L226.605 44.7327L190.247 29.9099L195.547 26.4651Z" fill="black"/>
<path d="M53.8519 214.733L48.3049 218.451L45.9081 217.122L50.7951 215.362L53.8519 214.733Z" fill="black"/>
<path d="M190.246 29.8998L226.604 44.7226L224.36 51.3711L188.069 36.3891L190.246 29.8998Z" fill="black"/>
<path d="M45.9189 217.122L48.3156 218.451L46.1569 224.971L45.372 222.58L45.9189 217.122Z" fill="black"/>
<path d="M341.965 217.085L337.55 217.878L333.788 213.531L338.883 214.794L341.965 217.085Z" fill="black"/>
<path d="M103.859 122.447L45.9543 133.728L42.7474 129.514L100.59 118.324L103.859 122.447Z" fill="#030303"/>
<path d="M301.422 117.575L340.554 134.601L335.393 133.158L296.312 116.133L301.422 117.575Z" fill="black"/>
<path d="M112.688 39.9422L109.222 38.198L114.692 34.6949L118.019 38.6875L112.688 39.9422Z" fill="black"/>
<path d="M341.965 217.085L342.572 222.646L339.008 224.661L337.55 217.878L341.965 217.085Z" fill="#0C0C0C"/>
<path d="M112.688 39.9422L112.603 45.831L107.044 44.7766L109.222 38.198L112.688 39.9422Z" fill="#1D1D1D"/>
<path d="M116.328 48.902L117.371 112.798L116.372 110.761L115.322 47.0396L116.328 48.902Z" fill="black"/>
<path d="M83.2886 313.496L50.3912 291.968L47.9219 286.646L80.8137 308.075L83.2886 313.496Z" fill="black"/>
<path d="M105.315 129.167L47.4364 140.559L45.9613 133.72L103.866 122.439L105.315 129.167Z" fill="#3B3B3B"/>
<path d="M45.7509 211.168L44.8853 205.586L45.671 207.932L48.1773 213.457L45.7509 211.168Z" fill="black"/>
<path d="M112.688 39.9422L118.019 38.6875L119.481 45.4762L112.603 45.831L112.688 39.9422Z" fill="#4C4C4C"/>
<path d="M216.715 43.8995L180.482 29.0484L185.836 30.6668L222.13 45.5286L216.715 43.8995Z" fill="black"/>
<path d="M342.077 211.13L337.638 212.888L339.349 207.627L342.922 205.65L342.077 211.13Z" fill="black"/>
<path d="M40.4497 140.983L42.2948 204.071L36.8754 202.742L34.976 139.751L40.4497 140.983Z" fill="#1D1D1D"/>
<path d="M107.2 40.8755L102.351 41.3649L99.0416 37.3491L104.635 38.9738L107.2 40.8755Z" fill="black"/>
<path d="M290.577 35.369L235.601 45.2309L232.001 41.1814L286.927 31.4054L290.577 35.369Z" fill="black"/>
<path d="M47.4309 140.572L49.2013 203.626L42.3016 204.073L40.4564 140.985L47.4309 140.572Z" fill="#474747"/>
<path d="M107.2 40.8755L108.015 46.6178L103.821 48.1845L102.352 41.3649L107.2 40.8755Z" fill="#1B1B1B"/>
<path d="M292.033 42.1075L237.083 52.0822L235.606 45.2184L290.582 35.3564L292.033 42.1075Z" fill="#313131"/>
<path d="M34.7005 50.9179L2.76998 35.7908L8.34205 32.3046L40.377 47.3245L34.7005 50.9179Z" fill="black"/>
<path d="M115.936 41.3608L120.741 39.8683L124.015 38.7347L118.518 42.2667L115.936 41.3608Z" fill="black"/>
<path d="M32.5164 57.6378L0.653148 42.3481L2.78466 35.7955L34.7151 50.9226L32.5164 57.6378Z" fill="black"/>
<path d="M115.936 41.3608L118.518 42.2667L116.322 48.8891L115.316 47.0269L115.936 41.3608Z" fill="black"/>
<path d="M274.002 230.188L236.281 210.679L241.555 207.007L279.365 226.399L274.002 230.188Z" fill="black"/>
<path d="M271.724 236.815L234.074 217.148L236.278 210.69L273.999 230.2L271.724 236.815Z" fill="#080808"/>
<path d="M271.127 299.31L277.007 300.82L277.077 306.016L273.258 304.69L271.127 299.31Z" fill="black"/>
<path d="M283.82 300.299L282.215 305.388L277.072 306.003L277.001 300.807L283.82 300.299Z" fill="#1F1F1F"/>
<path d="M44.8736 205.586L43.0521 142.386L43.8406 144.56L45.6592 207.932L44.8736 205.586Z" fill="black"/>
<path d="M40.5056 135.103L37.1595 133.152L42.7566 129.51L45.9634 133.724L40.5056 135.103Z" fill="#050505"/>
<path d="M34.9803 139.751L37.1493 133.156L40.4955 135.106L40.454 140.982L34.9803 139.751Z" fill="#191919"/>
<path d="M42.7455 129.521L36.9969 128.072L40.3165 129.017L45.8083 128.64L42.7455 129.521Z" fill="black"/>
<path d="M344.28 142.457L342.921 205.661L339.348 207.638L340.672 144.288L344.28 142.457Z" fill="black"/>
<path d="M47.4308 140.572L40.4564 140.986L40.4978 135.111L45.9556 133.732L47.4308 140.572Z" fill="#4D4D4D"/>
<path d="M337.541 217.869L283.071 230.849L279.357 226.403L333.778 213.521L337.541 217.869Z" fill="#050505"/>
<path d="M40.3189 128.999L36.9993 128.054L34.4575 122.347L39.9461 123.551L40.3189 128.999Z" fill="black"/>
<path d="M268.831 304.2L272.616 301.956L271.835 307.38L267.25 309.305L268.831 304.2Z" fill="black"/>
<path d="M285.705 138.425L327.295 129.675L335.404 133.175L280.223 144.842L279.173 144.317L284.073 143.967L285.705 138.425Z" fill="black"/>
<path d="M40.319 128.999L39.9462 123.551L46.9412 123.146L45.8108 128.622L40.319 128.999Z" fill="#2F2F2F"/>
<path d="M338.997 224.663L284.554 237.758L283.07 230.861L337.54 217.881L338.997 224.663Z" fill="#313131"/>
<path d="M102.347 41.3608L43.6228 51.4264L40.3765 47.3223L99.037 37.345L102.347 41.3608Z" fill="black"/>
<path d="M302.561 37.0302L342.26 52.2214L337.032 50.5879L297.385 35.407L302.561 37.0302Z" fill="black"/>
<path d="M43.6042 136.783L48.5612 135.126L51.6531 134.258L46.0278 137.931L43.6042 136.783Z" fill="black"/>
<path d="M337.653 212.885L283.139 225.793L284.767 220.47L339.364 207.624L337.653 212.885Z" fill="black"/>
<path d="M232.003 41.1741L235.603 45.2236L230.354 46.5002L226.611 44.7236L232.003 41.1741Z" fill="black"/>
<path d="M43.6042 136.783L46.0278 137.931L43.8407 144.569L43.0522 142.396L43.6042 136.783Z" fill="black"/>
<path d="M103.821 48.1927L45.1237 58.3733L43.6283 51.4388L102.352 41.3731L103.821 48.1927Z" fill="#3A3A3A"/>
<path d="M230.36 46.494L230.201 52.4437L224.372 51.366L226.617 44.7174L230.36 46.494Z" fill="#242424"/>
<path d="M335.395 133.161L340.556 134.605L343.683 136.742L339.211 137.405L335.395 133.161Z" fill="black"/>
<path d="M277.66 238.234L277.001 300.82L271.121 299.309L271.716 236.818L277.66 238.234Z" fill="#272727"/>
<path d="M230.36 46.494L235.608 45.2175L237.085 52.0812L230.201 52.4437L230.36 46.494Z" fill="#484848"/>
<path d="M81.5713 238.364L48.3025 218.453L53.8495 214.735L87.221 234.527L81.5713 238.364Z" fill="black"/>
<path d="M284.548 237.748L283.816 300.303L276.997 300.811L277.657 238.225L284.548 237.748Z" fill="#404040"/>
<path d="M79.3501 245.047L46.1484 224.973L48.3071 218.452L81.576 238.364L79.3501 245.047Z" fill="black"/>
<path d="M340.677 144.286L339.199 137.411L343.671 136.748L344.285 142.455L340.677 144.286Z" fill="#0B0B0B"/>
<path d="M43.3429 127.058L45.8873 132.796L43.4333 130.66L42.5537 124.932L43.3429 127.058Z" fill="black"/>
<path d="M86.7231 314.858L83.2841 313.499L80.808 308.079L86.4079 309.621L86.7231 314.858Z" fill="black"/>
<path d="M38.0604 58.7391L39.9561 123.561L34.4675 122.358L32.5158 57.6382L38.0604 58.7391Z" fill="#1F1F1F"/>
<path d="M93.4244 309.109L92.193 314.233L86.7365 314.866L86.4212 309.628L93.4244 309.109Z" fill="#232323"/>
<path d="M225.003 47.4647L220.309 47.9713L216.723 43.8976L222.14 45.5268L225.003 47.4647Z" fill="black"/>
<path d="M341.051 126.796L344.668 125.005L343.81 130.641L339.312 132.294L341.051 126.796Z" fill="black"/>
<path d="M81.4594 233.25L48.1644 213.449L45.658 207.923L78.9455 227.616L81.4594 233.25Z" fill="black"/>
<path d="M45.1162 58.3658L46.9354 123.154L39.9404 123.559L38.0446 58.737L45.1162 58.3658Z" fill="#494949"/>
<path d="M225.003 47.4647L225.722 53.2646L221.793 54.8662L220.309 47.9713L225.003 47.4647Z" fill="#131313"/>
<path d="M273.236 239.298L272.623 301.956L268.838 304.201L269.412 241.4L273.236 239.298Z" fill="black"/>
<path d="M242.25 45.3181L236.833 48.8972L233.93 47.9649L238.6 46.4452L242.25 45.3181Z" fill="black"/>
<path d="M233.944 47.9687L236.847 48.9009L234.583 55.5942L233.197 53.6906L233.944 47.9687Z" fill="black"/>
<path d="M277.847 232.354L273.987 230.188L279.351 226.4L283.065 230.846L277.847 232.354Z" fill="#0E0E0E"/>
<path d="M274.804 148.598L236.555 130.882L241.899 127.255L280.24 144.856L274.804 148.598Z" fill="black"/>
<path d="M212.608 318.778L268.831 304.192L267.25 309.296L211.117 323.939L212.608 318.778Z" fill="black"/>
<path d="M277.847 232.354L277.658 238.219L271.714 236.804L273.987 230.188L277.847 232.354Z" fill="#272727"/>
<path d="M89.9712 316.986L89.1282 311.393L90.0679 314.116L92.5456 319.564L89.9712 316.986Z" fill="black"/>
<path d="M38.0977 52.7286L34.7108 50.9206L40.3873 47.3271L43.6336 51.4312L38.0977 52.7286Z" fill="black"/>
<path d="M153.81 57.7311L118.519 42.2656L124.016 38.7336L159.406 54.0888L153.81 57.7311Z" fill="black"/>
<path d="M148.826 225.783L90.5852 239.033L87.2259 234.524L145.407 221.376L148.826 225.783Z" fill="#0A0A0A"/>
<path d="M272.49 155.337L234.311 137.458L236.545 130.884L274.794 148.6L272.49 155.337Z" fill="#060606"/>
<path d="M277.847 232.354L283.065 230.846L284.549 237.743L277.658 238.219L277.847 232.354Z" fill="#464646"/>
<path d="M38.0976 52.7286L38.0574 58.7361L32.5128 57.6357L34.7107 50.9205L38.0976 52.7286Z" fill="#181818"/>
<path d="M42.5588 124.93L40.6873 59.9879L41.479 61.9312L43.3481 127.054L42.5588 124.93Z" fill="black"/>
<path d="M151.551 64.5256L116.332 48.8945L118.528 42.2721L153.818 57.7376L151.551 64.5256Z" fill="black"/>
<path d="M38.0976 52.7286L43.6335 51.4312L45.1288 58.3658L38.0573 58.7361L38.0976 52.7286Z" fill="#4E4E4E"/>
<path d="M150.3 232.634L92.0842 246L90.5819 239.032L148.822 225.782L150.3 232.634Z" fill="#3A3A3A"/>
<path d="M346.053 60.0457L344.657 124.993L341.04 126.784L342.4 61.6839L346.053 60.0457Z" fill="black"/>
<path d="M277.921 226.306L274.048 225.138L271.889 219.548L277.851 220.936L277.921 226.306Z" fill="#040404"/>
<path d="M85.0059 246.484L86.4076 309.626L80.8077 308.084L79.3478 245.039L85.0059 246.484Z" fill="#1C1C1C"/>
<path d="M277.921 226.306L277.851 220.936L284.762 220.469L283.134 225.792L277.921 226.306Z" fill="#232323"/>
<path d="M272.546 233.623L267.912 234.463L264.211 229.989L269.558 231.245L272.546 233.623Z" fill="black"/>
<path d="M113.92 43.0595L149.137 58.5664L143.451 56.929L108.306 41.4317L113.92 43.0595Z" fill="black"/>
<path d="M92.0991 245.999L93.424 309.109L86.4208 309.628L85.0192 246.486L92.0991 245.999Z" fill="#434343"/>
<path d="M272.546 233.623L273.227 239.289L269.403 241.391L267.912 234.463L272.546 233.623Z" fill="#111111"/>
<path d="M280.236 144.846L335.384 133.154L339.2 137.398L284.004 149.187L280.236 144.846Z" fill="black"/>
<path d="M340.677 144.286L285.507 156.193L284.003 149.2L339.199 137.411L340.677 144.286Z" fill="#303030"/>
<path d="M41.2336 54.2219L46.2627 52.6763L49.3906 51.5556L43.6849 55.1795L41.2336 54.2219Z" fill="black"/>
<path d="M41.2336 54.2219L43.6848 55.1795L41.4682 61.9403L40.6766 59.997L41.2336 54.2219Z" fill="black"/>
<path d="M269.559 224.047L273.394 221.984L272.602 227.565L267.955 229.387L269.559 224.047Z" fill="black"/>
<path d="M220.317 47.9687L162.947 58.2603L159.419 54.0959L216.731 43.895L220.317 47.9687Z" fill="black"/>
<path d="M345.437 54.1845L340.906 54.7087L337.034 50.5758L342.262 52.2093L345.437 54.1845Z" fill="black"/>
<path d="M285.724 138.425L341.051 126.783L339.312 132.281L284.071 143.993L285.724 138.425Z" fill="black"/>
<path d="M345.437 54.1845L346.058 60.0433L342.405 61.6809L340.906 54.7087L345.437 54.1845Z" fill="#0B0B0B"/>
<path d="M221.792 54.8565L164.448 65.2657L162.937 58.2532L220.308 47.9616L221.792 54.8565Z" fill="#353535"/>
<path d="M88.7019 250.684L90.0708 314.11L89.1312 311.387L87.7562 248.132L88.7019 250.684Z" fill="black"/>
<path d="M201.838 247.324L165.148 226.965L170.618 223.196L207.405 243.432L201.838 247.324Z" fill="black"/>
<path d="M199.542 254.081L162.922 233.558L165.147 226.968L201.837 247.327L199.542 254.081Z" fill="#030303"/>
<path d="M79.7048 156.009L46.0309 137.922L51.6561 134.249L85.4364 152.218L79.7048 156.009Z" fill="black"/>
<path d="M199.729 317.733L205.606 319.31L205.771 324.594L202.028 323.198L199.729 317.733Z" fill="black"/>
<path d="M46.0308 137.921L79.7047 156.008L77.4479 162.813L43.8431 144.56L46.0308 137.921Z" fill="black"/>
<path d="M278.519 156.625L277.841 220.949L271.879 219.56L272.491 155.339L278.519 156.625Z" fill="#2A2A2A"/>
<path d="M85.0806 240.567L81.5789 238.362L87.2288 234.524L90.5881 239.034L85.0806 240.567Z" fill="#0E0E0E"/>
<path d="M85.0805 240.567L85.0103 246.488L79.3522 245.043L81.5788 238.362L85.0805 240.567Z" fill="#1C1C1C"/>
<path d="M212.608 318.778L211.117 323.939L205.764 324.593L205.599 319.309L212.608 318.778Z" fill="#202020"/>
<path d="M285.519 156.195L284.766 220.484L277.855 220.951L278.533 156.627L285.519 156.195Z" fill="#424242"/>
<path d="M85.0806 240.567L90.5881 239.034L92.0904 246.002L85.0104 246.488L85.0806 240.567Z" fill="#4B4B4B"/>
<path d="M79.5927 150.764L45.8927 132.795L43.3483 127.057L77.0408 144.907L79.5927 150.764Z" fill="black"/>
<path d="M160.585 228.004L197.207 248.42L191.591 247.172L155.037 226.747L160.585 228.004Z" fill="black"/>
<path d="M84.9499 234.463L81.4675 233.265L78.9539 227.631L84.6279 229.048L84.9499 234.463Z" fill="black"/>
<path d="M84.95 234.463L84.628 229.048L91.7292 228.571L90.4844 233.933L84.95 234.463Z" fill="#282828"/>
<path d="M196.966 322.848L201.025 320.505L200.301 326.028L195.5 328.024L196.966 322.848Z" fill="black"/>
<path d="M242.25 45.3181L281.138 61.0201L275.626 64.7123L236.834 48.8972L242.25 45.3181Z" fill="black"/>
<path d="M269.559 224.047L270.149 159.498L274.024 157.585L273.394 221.984L269.559 224.047Z" fill="black"/>
<path d="M267.916 234.463L211.061 248.012L207.414 243.433L264.216 229.989L267.916 234.463Z" fill="#080808"/>
<path d="M273.292 71.5628L234.573 55.5782L236.837 48.8848L275.629 64.6999L273.292 71.5628Z" fill="#040404"/>
<path d="M96.6163 240.082L90.9379 243.953L88.3552 242.517L93.334 240.657L96.6163 240.082Z" fill="black"/>
<path d="M269.41 241.388L212.58 255.056L211.063 248.01L267.918 234.46L269.41 241.388Z" fill="#353535"/>
<path d="M88.3659 242.527L90.9486 243.963L88.703 250.69L87.7574 248.138L88.3659 242.527Z" fill="black"/>
<path d="M280.236 144.846L284.004 149.187L278.715 150.615L274.8 148.589L280.236 144.846Z" fill="#080808"/>
<path d="M272.49 155.337L274.795 148.6L278.709 150.626L278.517 156.624L272.49 155.337Z" fill="#282828"/>
<path d="M90.0645 314.112L125.168 336.982L127.649 342.533L92.5437 319.558L90.0645 314.112Z" fill="black"/>
<path d="M285.519 156.195L278.533 156.629L278.725 150.631L284.014 149.203L285.519 156.195Z" fill="#474747"/>
<path d="M157.487 59.5791L153.814 57.7367L159.41 54.0944L162.939 58.2588L157.487 59.5791Z" fill="#010101"/>
<path d="M157.487 59.5791L157.371 65.6501L151.547 64.5247L153.814 57.7367L157.487 59.5791Z" fill="#202020"/>
<path d="M265.583 63.9283L226.916 48.0795L232.349 49.7115L271.077 65.5698L265.583 63.9283Z" fill="black"/>
<path d="M199.729 317.733L199.555 254.079L205.496 255.557L205.606 319.31L199.729 317.733Z" fill="#232323"/>
<path d="M149.404 151.529L90.3594 163.685L88.8359 156.619L147.907 144.582L149.404 151.529Z" fill="#3A3A3A"/>
<path d="M267.954 229.386L211.05 242.86L212.562 237.456L269.559 224.046L267.954 229.386Z" fill="black"/>
<path d="M88.2352 236.404L87.3791 230.661L88.3262 233.165L90.8414 238.829L88.2352 236.404Z" fill="black"/>
<path d="M157.487 59.5791L162.939 58.2588L164.449 65.2714L157.371 65.6501L157.487 59.5791Z" fill="#4B4B4B"/>
<path d="M272.676 137.604L278.722 138.862L278.793 144.413L274.864 143.413L272.676 137.604Z" fill="#080808"/>
<path d="M205.608 319.32L205.499 255.567L212.585 255.07L212.618 318.789L205.608 319.32Z" fill="#414141"/>
<path d="M340.901 54.7072L284.96 65.2329L281.138 61.0067L337.028 50.5743L340.901 54.7072Z" fill="black"/>
<path d="M285.724 138.425L284.071 143.993L278.788 144.399L278.717 138.849L285.724 138.425Z" fill="#272727"/>
<path d="M273.348 151.772L268.651 152.476L264.898 148.109L270.317 149.553L273.348 151.772Z" fill="black"/>
<path d="M83.1766 164.129L84.6175 229.042L78.9435 227.625L77.4429 162.816L83.1766 164.129Z" fill="#1F1F1F"/>
<path d="M342.413 61.6884L286.5 72.3343L284.975 65.2418L340.916 54.7162L342.413 61.6884Z" fill="#2F2F2F"/>
<path d="M151.906 60.587L146.977 61.1284L143.465 56.9387L149.152 58.5762L151.906 60.587Z" fill="black"/>
<path d="M273.348 151.772L274.038 157.589L270.163 159.501L268.651 152.476L273.348 151.772Z" fill="#111111"/>
<path d="M90.3631 163.681L91.725 228.559L84.6238 229.036L83.1829 164.122L90.3631 163.681Z" fill="#454545"/>
<path d="M151.906 60.587L152.707 66.5016L148.495 68.1738L146.977 61.1284L151.906 60.587Z" fill="#191919"/>
<path d="M196.966 322.848L196.761 258.875L200.865 256.679L201.025 320.506L196.966 322.848Z" fill="black"/>
<path d="M160.959 61.1097L165.849 59.5356L169.365 58.4223L163.741 62.0957L160.959 61.1097Z" fill="black"/>
<path d="M270.324 141.673L274.211 139.803L273.407 145.546L268.696 147.26L270.324 141.673Z" fill="black"/>
<path d="M160.959 61.1097L163.741 62.0957L161.454 68.9305L160.271 66.9429L160.959 61.1097Z" fill="black"/>
<path d="M77.782 71.3201L43.6919 55.1692L49.3976 51.5453L83.596 67.5804L77.782 71.3201Z" fill="black"/>
<path d="M75.4862 78.264L41.467 61.9402L43.6836 55.1792L77.7737 71.3302L75.4862 78.264Z" fill="black"/>
<path d="M138.242 338.079L196.955 322.847L195.489 328.023L136.875 343.314L138.242 338.079Z" fill="black"/>
<path d="M207.419 243.441L211.066 248.021L205.644 249.582L201.851 247.333L207.419 243.441Z" fill="#0F0F0F"/>
<path d="M272.676 137.604L273.305 71.5777L279.419 72.7287L278.722 138.861L272.676 137.604Z" fill="#2C2C2C"/>
<path d="M201.651 164.166L164.461 145.667L170.007 141.944L207.298 160.322L201.651 164.166Z" fill="black"/>
<path d="M199.542 254.081L201.838 247.328L205.631 249.576L205.484 255.559L199.542 254.081Z" fill="#232323"/>
<path d="M86.9099 167.955L88.3177 233.168L87.3705 230.664L85.9568 165.633L86.9099 167.955Z" fill="black"/>
<path d="M199.318 171.054L162.2 152.384L164.455 145.674L201.646 164.173L199.318 171.054Z" fill="#010101"/>
<path d="M278.705 138.855L279.402 72.722L286.486 72.3347L285.712 138.432L278.705 138.855Z" fill="#444444"/>
<path d="M212.571 255.071L205.485 255.568L205.632 249.585L211.053 248.024L212.571 255.071Z" fill="#484848"/>
<path d="M83.2513 158.081L79.7043 156.018L85.4354 152.227L88.8379 156.628L83.2513 158.081Z" fill="#080808"/>
<path d="M83.2513 158.081L83.1812 164.137L77.4476 162.823L79.7043 156.018L83.2513 158.081Z" fill="#1C1C1C"/>
<path d="M83.2512 158.081L88.8378 156.628L90.3614 163.695L83.1812 164.137L83.2512 158.081Z" fill="#4C4C4C"/>
<path d="M199.505 236.498L205.464 237.947L205.631 243.412L201.837 242.18L199.505 236.498Z" fill="black"/>
<path d="M212.571 237.468L211.058 242.872L205.631 243.421L205.463 237.956L212.571 237.468Z" fill="#242424"/>
<path d="M191.609 247.175L197.225 248.423L200.107 250.893L195.24 251.783L191.609 247.175Z" fill="black"/>
<path d="M83.1207 151.79L79.5935 150.762L77.0414 144.905L82.7918 146.191L83.1207 151.79Z" fill="black"/>
<path d="M196.761 258.86L195.236 251.78L200.103 250.89L200.865 256.664L196.761 258.86Z" fill="#161616"/>
<path d="M274.86 73.5788L274.212 139.792L270.326 141.662L270.933 75.2884L274.86 73.5788Z" fill="black"/>
<path d="M83.1207 151.79L82.7918 146.191L89.9936 145.758L88.7351 151.369L83.1207 151.79Z" fill="#2C2C2C"/>
<path d="M279.601 66.5789L275.63 64.7007L281.141 61.0085L284.964 65.2348L279.601 66.5789Z" fill="#020202"/>
<path d="M279.601 66.5789L279.406 72.7145L273.292 71.5635L275.63 64.7007L279.601 66.5789Z" fill="#272727"/>
<path d="M268.644 152.481L210.997 164.794L207.299 160.325L264.892 148.114L268.644 152.481Z" fill="#020202"/>
<path d="M146.959 61.1284L87.033 71.8786L83.5861 67.5932L143.449 56.9387L146.959 61.1284Z" fill="black"/>
<path d="M279.601 66.5789L284.964 65.2348L286.49 72.3272L279.406 72.7145L279.601 66.5789Z" fill="#474747"/>
<path d="M264.892 148.113L207.3 160.324L210.993 159.496L268.691 147.263L264.892 148.113Z" fill="black"/>
<path d="M200.083 244.729L195.214 246.62L196.7 241.199L200.817 239.044L200.083 244.729Z" fill="black"/>
<path d="M86.5738 159.854L91.6253 158.105L94.9486 157.276L89.1882 161.1L86.5738 159.854Z" fill="black"/>
<path d="M211.003 164.782L268.65 152.469L270.162 159.495L212.541 171.93L211.003 164.782Z" fill="#343434"/>
<path d="M86.574 159.854L89.1884 161.1L86.9116 167.952L85.9585 165.63L86.574 159.854Z" fill="black"/>
<path d="M126.482 265.225L90.9493 243.958L96.6278 240.087L132.267 261.225L126.482 265.225Z" fill="black"/>
<path d="M148.49 68.1656L88.5898 79.0386L87.0446 71.8704L146.971 61.1202L148.49 68.1656Z" fill="#393939"/>
<path d="M124.149 272.131L88.6906 250.693L90.9362 243.967L126.469 265.233L124.149 272.131Z" fill="black"/>
<path d="M125.176 336.978L131.045 338.625L131.312 344L127.657 342.529L125.176 336.978Z" fill="black"/>
<path d="M138.242 338.079L136.875 343.313L131.299 344.009L131.032 338.634L138.242 338.079Z" fill="#202020"/>
<path d="M265.583 63.9283L271.077 65.5698L274.153 67.6203L269.391 68.1805L265.583 63.9283Z" fill="black"/>
<path d="M212.534 153.825L270.326 141.664L268.698 147.25L211.001 159.483L212.534 153.825Z" fill="#030303"/>
<path d="M86.518 149.942L89.0717 155.833L86.433 153.571L85.5632 147.672L86.518 149.942Z" fill="black"/>
<path d="M126.389 259.98L90.8279 238.831L88.3128 233.167L123.87 254.202L126.389 259.98Z" fill="black"/>
<path d="M274.151 67.6055L274.85 73.5812L270.922 75.2918L269.389 68.1657L274.151 67.6055Z" fill="#101010"/>
<path d="M205.347 172.398L205.46 237.957L199.5 236.507L199.322 171.053L205.347 172.398Z" fill="#252525"/>
<path d="M81.3099 79.4399L82.7919 146.2L77.0415 144.914L75.4984 78.2647L81.3099 79.4399Z" fill="#212121"/>
<path d="M212.534 171.931L212.567 237.455L205.46 237.943L205.347 172.384L212.534 171.931Z" fill="#434343"/>
<path d="M88.5899 79.048L89.9904 145.77L82.7886 146.203L81.3067 79.4431L88.5899 79.048Z" fill="#484848"/>
<path d="M132.269 261.23L191.609 247.185L195.24 251.793L135.836 265.949L132.269 261.23Z" fill="#0B0B0B"/>
<path d="M200.643 173.406L200.808 239.046L196.691 241.2L196.48 175.405L200.643 173.406Z" fill="black"/>
<path d="M201.446 78.6186L163.74 62.0945L169.364 58.4212L207.173 74.8264L201.446 78.6186Z" fill="black"/>
<path d="M135.834 265.953L195.237 251.797L196.762 258.877L137.389 273.157L135.834 265.953Z" fill="#393939"/>
<path d="M199.094 85.6184L161.465 68.9176L163.751 62.0827L201.457 78.6069L199.094 85.6184Z" fill="black"/>
<path d="M81.366 73.2428L77.7729 71.3304L83.5875 67.5906L87.0344 71.876L81.366 73.2428Z" fill="#010101"/>
<path d="M85.0805 82.8559L86.5285 149.933L85.5737 147.662L84.1198 80.7776L85.0805 82.8559Z" fill="black"/>
<path d="M81.3659 73.2428L81.2963 79.4398L75.4848 78.2642L77.7729 71.3304L81.3659 73.2428Z" fill="#1B1B1B"/>
<path d="M125.176 336.978L124.163 272.12L130.097 273.664L131.045 338.625L125.176 336.978Z" fill="#1E1E1E"/>
<path d="M205.496 166.275L201.65 164.171L207.297 160.327L210.995 164.796L205.496 166.275Z" fill="#090909"/>
<path d="M205.496 166.275L205.347 172.396L199.321 171.051L201.65 164.171L205.496 166.275Z" fill="#232323"/>
<path d="M81.3659 73.2428L87.0343 71.876L88.5795 79.0442L81.2963 79.4398L81.3659 73.2428Z" fill="#4C4C4C"/>
<path d="M131.037 338.621L130.088 273.66L137.38 273.141L138.247 338.067L131.037 338.621Z" fill="#414141"/>
<path d="M137.141 255.201L196.697 241.189L195.211 246.61L135.755 260.688L137.141 255.201Z" fill="#010101"/>
<path d="M205.496 166.275L210.995 164.796L212.534 171.944L205.347 172.396L205.496 166.275Z" fill="#494949"/>
<path d="M159.055 62.939L196.688 79.5092L190.909 77.8606L153.349 61.299L159.055 62.939Z" fill="black"/>
<path d="M205.478 159.929L201.63 158.87L199.264 152.96L205.308 154.275L205.478 159.929Z" fill="#030303"/>
<path d="M205.478 159.929L205.308 154.275L212.516 153.833L210.982 159.491L205.478 159.929Z" fill="#292929"/>
<path d="M199.878 167.47L194.941 168.219L191.259 163.721L196.955 165.164L199.878 167.47Z" fill="black"/>
<path d="M269.391 68.1656L210.928 79.1655L207.178 74.815L265.582 63.9134L269.391 68.1656Z" fill="black"/>
<path d="M199.878 167.47L200.651 173.402L196.488 175.4L194.941 168.219L199.878 167.47Z" fill="#161616"/>
<path d="M84.7446 74.8294L89.871 73.197L93.2365 72.1002L87.3915 75.8728L84.7446 74.8294Z" fill="black"/>
<path d="M270.922 75.296L212.489 86.4219L210.928 79.17L269.39 68.17L270.922 75.296Z" fill="#333333"/>
<path d="M84.7446 74.8294L87.3914 75.8729L85.0832 82.8551L84.1225 80.7779L84.7446 74.8294Z" fill="black"/>
<path d="M199.859 161.123L194.921 162.901L196.427 157.223L200.603 155.269L199.859 161.123Z" fill="black"/>
<path d="M132.269 261.23L135.837 265.949L130.2 267.569L126.483 265.231L132.269 261.23Z" fill="#101010"/>
<path d="M124.149 272.131L126.468 265.234L130.185 267.571L130.083 273.676L124.149 272.131Z" fill="#1E1E1E"/>
<path d="M125.194 180.443L89.1945 161.108L94.9549 157.284L131.065 176.492L125.194 180.443Z" fill="black"/>
<path d="M122.842 187.461L86.9191 167.948L89.1959 161.096L125.196 180.43L122.842 187.461Z" fill="black"/>
<path d="M137.383 273.139L130.091 273.659L130.193 267.555L135.83 265.936L137.383 273.139Z" fill="#4A4A4A"/>
<path d="M205.198 86.8318L205.314 154.278L199.27 152.963L199.086 85.6288L205.198 86.8318Z" fill="#282828"/>
<path d="M123.869 254.212L129.821 255.727L130.093 261.291L126.388 259.989L123.869 254.212Z" fill="black"/>
<path d="M86.5179 149.942L122.542 169.027L125.1 175.042L89.0701 155.832L86.5179 149.942Z" fill="black"/>
<path d="M212.496 86.4211L212.531 153.83L205.323 154.273L205.206 86.8262L212.496 86.4211Z" fill="#464646"/>
<path d="M137.141 255.201L135.756 260.688L130.099 261.274L129.826 255.711L137.141 255.201Z" fill="#252525"/>
<path d="M200.438 87.7278L200.607 155.258L196.432 157.213L196.215 89.5162L200.438 87.7278Z" fill="black"/>
<path d="M194.95 168.217L134.682 181.089L131.065 176.484L191.267 163.719L194.95 168.217Z" fill="#050505"/>
<path d="M205.347 80.5599L201.446 78.6095L207.174 74.8172L210.924 79.1678L205.347 80.5599Z" fill="#030303"/>
<path d="M205.347 80.5599L205.196 86.8245L199.084 85.6211L201.446 78.6095L205.347 80.5599Z" fill="#232323"/>
<path d="M196.481 175.403L136.243 188.403L134.668 181.094L194.935 168.221L196.481 175.403Z" fill="#383838"/>
<path d="M205.347 80.5599L210.924 79.1678L212.486 86.4196L205.196 86.8245L205.347 80.5599Z" fill="#494949"/>
<path d="M194.931 162.897L134.61 175.686L136.012 169.934L196.438 157.219L194.931 162.897Z" fill="#060606"/>
<path d="M128.853 188.88L129.829 255.726L123.877 254.21L122.836 187.475L128.853 188.88Z" fill="#202020"/>
<path d="M199.654 81.6426L194.645 82.2417L190.911 77.8634L196.69 79.512L199.654 81.6426Z" fill="black"/>
<path d="M136.245 188.395L137.137 255.203L129.823 255.713L128.847 188.867L136.245 188.395Z" fill="#434343"/>
<path d="M199.654 81.6426L200.438 87.7399L196.214 89.5285L194.645 82.2417L199.654 81.6426Z" fill="#151515"/>
<path d="M123.869 93.1596L87.3914 75.8777L93.2364 72.105L129.828 89.2617L123.869 93.1596Z" fill="black"/>
<path d="M121.48 100.327L85.0806 82.8609L87.3889 75.8786L123.866 93.1605L121.48 100.327Z" fill="black"/>
<path d="M128.946 182.627L125.178 180.44L131.049 176.488L134.667 181.093L128.946 182.627Z" fill="#0A0A0A"/>
<path d="M128.946 182.627L128.844 188.876L122.826 187.469L125.178 180.44L128.946 182.627Z" fill="#1E1E1E"/>
<path d="M128.946 182.627L134.667 181.093L136.242 188.403L128.844 188.876L128.946 182.627Z" fill="#4B4B4B"/>
<path d="M128.853 176.15L125.097 175.029L122.539 169.014L128.575 170.39L128.853 176.15Z" fill="black"/>
<path d="M128.853 176.15L128.575 170.39L135.996 169.927L134.594 175.679L128.853 176.15Z" fill="#2A2A2A"/>
<path d="M194.651 82.2399L133.493 93.747L129.825 89.2649L190.916 77.8615L194.651 82.2399Z" fill="black"/>
<path d="M196.219 89.5197L135.091 101.159L133.493 93.7402L194.651 82.233L196.219 89.5197Z" fill="#373737"/>
<path d="M127.584 101.578L128.588 170.391L122.553 169.015L121.481 100.32L127.584 101.578Z" fill="#232323"/>
<path d="M135.087 101.167L136.006 169.941L128.585 170.404L127.58 101.591L135.087 101.167Z" fill="#474747"/>
<path d="M127.677 95.1942L123.857 93.1669L129.815 89.269L133.483 93.7511L127.677 95.1942Z" fill="#030303"/>
<path d="M127.677 95.1942L127.574 101.593L121.471 100.334L123.857 93.1669L127.677 95.1942Z" fill="#1E1E1E"/>
<path d="M127.677 95.1942L133.483 93.7511L135.081 101.17L127.574 101.593L127.677 95.1942Z" fill="#4B4B4B"/>
<path d="M151.7 8.74905L204.929 0.000747681L239.906 13.3932L185.936 22.5725L151.7 8.74905Z" fill="#009024"/>
<path d="M81.4966 20.2867L136.911 11.1792L170.932 25.124L114.691 34.6899L81.4966 20.2867Z" fill="#902400"/>
<path d="M195.547 26.4558L249.72 17.1535L286.922 31.3979L231.997 41.174L195.547 26.4558Z" fill="#0EB738"/>
<path d="M99.0429 37.3513L40.3824 47.3286L8.34739 32.3086L66.0858 22.8193L99.0429 37.3513Z" fill="#240090"/>
<path d="M124.018 38.7401L180.487 29.0434L216.721 43.8944L159.408 54.0953L124.018 38.7401Z" fill="#B7380E"/>
<path d="M242.25 45.3143L297.381 35.4031L337.028 50.584L281.138 61.0164L242.25 45.3143Z" fill="#10DB42"/>
<path d="M49.3908 51.5545L108.305 41.4377L143.45 56.935L83.5873 67.5895L49.3908 51.5545Z" fill="#380EB7"/>
<path d="M169.377 58.4162L226.923 48.071L265.591 63.9197L207.186 74.8214L169.377 58.4162Z" fill="#DB4210"/>
<path d="M93.2191 72.106L153.341 61.2977L190.901 77.8593L129.811 89.2627L93.2191 72.106Z" fill="#4210DB"/>
<path d="M8.36232 260.876L6.24209 200.834L37.3941 219.668L39.2434 280.998L8.36232 260.876Z" fill="#90CDF4"/>
<path d="M5.65582 184.269L3.47942 122.641L34.9844 139.753L36.8838 202.744L5.65582 184.269Z" fill="#89C6ED"/>
<path d="M2.87444 105.629L0.640168 42.3501L32.5034 57.6398L34.4552 122.359L2.87444 105.629Z" fill="#A3D9FC"/>
<path d="M47.9161 286.654L46.1458 224.966L79.3474 245.039L80.8073 308.085L47.9161 286.654Z" fill="#F490CD"/>
<path d="M45.6575 207.938L43.8389 144.566L77.4437 162.82L78.9442 227.629L45.6575 207.938Z" fill="#ED89C6"/>
<path d="M43.3428 127.058L41.4738 61.9348L75.4931 78.2586L77.0361 144.908L43.3428 127.058Z" fill="#FCA3D9"/>
<path d="M90.0645 314.112L88.6955 250.686L124.154 272.124L125.167 336.982L90.0645 314.112Z" fill="#CDF490"/>
<path d="M88.3098 233.175L86.902 167.963L122.825 187.476L123.867 254.212L88.3098 233.175Z" fill="#C6ED89"/>
<path d="M86.5178 149.942L85.0699 82.8652L121.469 100.332L122.541 169.027L86.5178 149.942Z" fill="#D9FCA3"/>
<path d="M283.82 300.299L284.552 237.745L338.996 224.65L337.707 286.318L283.82 300.299Z" fill="#1D4FC6"/>
<path d="M284.753 220.482L285.506 156.194L340.676 144.288L339.352 207.637L284.753 220.482Z" fill="#073FC3"/>
<path d="M285.724 138.425L286.497 72.3281L342.41 61.6822L341.05 126.783L285.724 138.425Z" fill="#2055D1"/>
<path d="M212.571 237.468L212.537 171.944L270.158 159.509L269.568 224.059L212.571 237.468Z" fill="#3FC307"/>
<path d="M196.761 258.86L196.966 322.833L138.253 338.065L137.386 273.139L196.761 258.86Z" fill="#A70031"/>
<path d="M212.534 153.825L212.499 86.4155L270.932 75.2897L270.325 141.663L212.534 153.825Z" fill="#55D120"/>
<path d="M137.141 255.201L136.248 188.393L196.486 175.393L196.697 241.188L137.141 255.201Z" fill="#C61D4F"/>
<path d="M136.002 169.934L135.084 101.16L196.212 89.5212L196.429 157.218L136.002 169.934Z" fill="#D12055"/>
<path d="M269.41 241.388L268.836 304.189L212.613 318.776L212.58 255.057L269.41 241.388Z" fill="#4FC61D"/>
<path d="M151.912 112.227C151.999 111.287 152.527 110.706 153.498 110.486L155.558 110.109C156.453 109.946 157.053 110.342 157.356 111.297C159.59 119.17 161.069 124.847 161.791 128.329C162.513 131.811 163.047 135.09 163.394 138.167L174.764 107.859C175.073 106.964 175.634 106.442 176.446 106.293L178.444 105.928C178.985 105.83 179.398 105.969 179.682 106.348C179.983 106.701 180.119 107.15 180.089 107.693L176.998 152.588C176.899 153.574 176.339 154.16 175.319 154.346L173.477 154.683C172.957 154.778 172.548 154.659 172.251 154.326C171.95 153.972 171.812 153.514 171.838 152.95L173.916 122.823C172.693 126.251 171.196 130.127 169.426 134.451C167.674 138.751 166.525 141.585 165.979 142.954C165.237 144.896 164.317 145.924 163.219 146.039L161.928 146.21C160.726 146.344 160.04 145.587 159.868 143.941C159.332 139.242 158.095 133.059 156.156 125.39L153.957 156.797C153.878 157.779 153.329 158.364 152.309 158.55L150.436 158.892C149.936 158.983 149.538 158.863 149.24 158.53C148.918 158.18 148.77 157.723 148.796 157.159L151.912 112.227Z" fill="black"/>
<path d="M174.994 201.026C175.089 201.31 175.159 201.577 175.205 201.827C175.315 202.43 174.946 202.939 174.096 203.352L172.414 204.208C171.95 204.379 171.47 204.338 170.972 204.084C170.491 203.807 170.178 203.39 170.034 202.836C169.104 199.629 167.962 197.439 166.607 196.267C166.007 196.162 165.364 196.172 164.677 196.297C162.58 196.594 160.748 198.456 159.18 201.883C157.629 205.285 156.583 209.918 156.041 215.781C155.52 221.641 155.856 226.365 157.049 229.954C158.264 233.54 159.719 235.382 161.414 235.481C164.546 234.607 166.74 231.668 167.999 226.664C168.217 225.742 168.457 225.171 168.718 224.951C169 224.728 169.532 224.695 170.313 224.853L172.497 225.326C173.328 225.518 173.546 226.36 173.152 227.851C171.857 231.831 170.391 234.755 168.754 236.624C167.112 238.473 164.887 239.653 162.077 240.167C160.594 240.524 158.829 240.169 156.785 239.101C154.736 238.013 153.093 235.259 151.855 230.839C150.638 226.415 150.212 221.137 150.576 215.005C150.957 208.849 152.468 203.464 155.11 198.852C157.748 194.219 160.957 191.535 164.738 190.801C165.258 190.706 165.994 190.733 166.946 190.882C167.895 191.01 168.784 191.288 169.616 191.717C170.464 192.121 171.421 193.183 172.488 194.903C173.555 196.622 174.391 198.663 174.994 201.026Z" fill="black"/>
<path d="M165.001 277.548C165.08 276.566 165.629 275.982 166.649 275.795L168.522 275.453C169.022 275.362 169.422 275.493 169.723 275.847C170.042 276.176 170.179 276.635 170.136 277.223L167.046 322.118C166.967 323.1 166.418 323.684 165.398 323.871L163.525 324.213C163.025 324.304 162.627 324.184 162.329 323.851C162.007 323.501 161.859 323.044 161.885 322.48L165.001 277.548Z" fill="black"/>
<path d="M235.358 121.122L244.672 118.995L241.166 96.6493L235.358 121.122ZM234.207 126.203L230.896 140.078C230.643 141.156 229.956 141.758 228.834 141.883L227.352 142.092C226.62 142.215 226.085 142.055 225.745 141.612C225.4 141.148 225.309 140.605 225.47 139.982L237.284 94.4754C237.784 92.5814 238.757 91.4695 240.201 91.1399L242.724 90.4987C244.395 90.1173 245.401 90.9618 245.744 93.0322L252.992 134.903C253.112 135.809 252.578 136.419 251.391 136.734L249.242 137.159C248.169 137.404 247.545 136.95 247.368 135.797L245.47 123.631L234.207 126.203Z" fill="black"/>
<path d="M228.566 179.679C228.619 178.695 229.154 178.097 230.168 177.885L232.032 177.495C232.529 177.391 232.933 177.512 233.243 177.858C233.57 178.179 233.729 178.632 233.722 179.217L232.891 197.257L248.051 194.086L248.852 175.437C248.906 174.453 249.45 173.852 250.486 173.636L252.319 173.252C252.836 173.144 253.25 173.263 253.56 173.609C253.866 173.934 254.015 174.389 254.008 174.974L252.062 219.933C251.988 220.922 251.443 221.522 250.429 221.734L248.596 222.117C248.078 222.226 247.666 222.117 247.36 221.792C247.05 221.446 246.901 220.991 246.913 220.427L247.88 198.694L232.719 201.865L231.745 224.182C231.691 225.166 231.157 225.765 230.142 225.977L228.31 226.36C227.792 226.468 227.38 226.36 227.074 226.035C226.743 225.693 226.594 225.238 226.626 224.669L228.566 179.679Z" fill="black"/>
<path d="M326.662 80.8046L316.922 82.7614L314.719 124.965C314.657 125.948 314.108 126.544 313.071 126.753L311.235 127.121C310.716 127.226 310.305 127.114 310.002 126.786C309.695 126.438 309.549 125.982 309.565 125.417L311.695 83.8117L301.613 85.8373C300.389 86.0832 299.824 85.6895 299.919 84.6562L299.979 82.7017C300.016 82.1331 300.144 81.7513 300.364 81.556C300.58 81.3401 301.009 81.1675 301.652 81.0383L326.514 76.043C327.821 75.7804 328.45 76.2799 328.402 77.5414L328.353 79.0727C328.366 79.998 327.803 80.5753 326.662 80.8046Z" fill="black"/>
<path d="M253.37 259.898L243.657 261.983L242.012 304.212C241.963 305.196 241.422 305.799 240.387 306.022L238.557 306.415C238.039 306.526 237.627 306.42 237.32 306.096C237.008 305.752 236.856 305.297 236.865 304.733L238.444 263.103L228.39 265.261C227.169 265.523 226.599 265.137 226.68 264.103L226.715 262.148C226.744 261.579 226.867 261.195 227.084 260.997C227.297 260.778 227.724 260.6 228.365 260.462L253.159 255.139C254.462 254.859 255.098 255.35 255.066 256.612L255.038 258.144C255.063 259.069 254.507 259.654 253.37 259.898Z" fill="black"/>
<path d="M303.995 181.782L319.926 178.581C320.3 178.506 320.617 178.583 320.879 178.811C321.161 179.035 321.305 179.373 321.309 179.825L321.286 181.481C321.299 182.406 320.839 182.962 319.906 183.15L304.627 186.22C303.59 186.428 303.109 186.018 303.182 184.989L303.292 182.636C303.325 182.154 303.559 181.87 303.995 181.782Z" fill="black"/>
</g>
<defs>
<clipPath id="clip0_5_6">
<rect width="346.091" height="344" fill="white"/>
</clipPath>
</defs>
</svg>
