<svg width="329" height="81" viewBox="0 0 329 81" fill="none" xmlns="http://www.w3.org/2000/svg">
<g filter="url(#filter0_d_1_4)">
<path d="M104.516 57.1816L107.006 59.2812C105.508 63.0247 103.523 66.1009 101.049 68.5098C98.5749 70.9186 96.1009 72.123 93.627 72.123C91.153 72.123 89.3789 71.3255 88.3047 69.7305C87.263 68.1354 86.7422 66.1172 86.7422 63.6758C86.7422 61.2344 87.4909 57.3118 88.9883 51.9082C90.5182 46.5046 92.1784 41.3125 93.9688 36.332C98.819 23.0508 101.244 14.5221 101.244 10.7461C101.244 8.5651 100.544 7.47461 99.1445 7.47461C93.5781 7.47461 86.6445 16.4427 78.3438 34.3789C74.9909 41.6055 72.3542 47.6764 70.4336 52.5918C66.4622 62.8783 64.0859 69.0143 63.3047 71H52.416L56.9082 59.2812C62.2467 45.707 66.1693 33.0931 68.6758 21.4395C69.6523 17.0124 70.1406 13.4642 70.1406 10.7949C70.1406 6.72591 69.0664 4.69141 66.918 4.69141C64.7695 4.69141 62.3444 6.33529 59.6426 9.62305C56.9408 12.8783 54.3529 16.9635 51.8789 21.8789C49.4049 26.7943 46.931 32.1165 44.457 37.8457C41.9831 43.5749 39.8346 48.8971 38.0117 53.8125C33.8125 65.2708 31.6478 71 31.5176 71H21.9473L27.416 55.7168C32.2988 43.1191 35.2773 33.207 36.3516 25.9805C36.8724 22.6276 37.1328 19.2096 37.1328 15.7266C37.1328 12.2435 36.2376 9.33008 34.4473 6.98633C32.6569 4.61003 30.1992 3.42188 27.0742 3.42188C23.9492 3.42188 21.2474 4.08919 18.9688 5.42383C16.7227 6.72591 14.8672 8.38607 13.4023 10.4043C11.9375 12.4225 10.7005 14.6849 9.69141 17.1914C7.77083 21.8464 6.81055 26.3874 6.81055 30.8145C6.81055 40.2871 8.97526 48.6204 13.3047 55.8145L11.2051 57.377C8.86133 53.6335 7.07096 49.4342 5.83398 44.7793C4.62956 40.0918 4.02734 36.0065 4.02734 32.5234C4.02734 29.0404 4.28776 25.9642 4.80859 23.2949C5.32943 20.5931 6.19206 17.875 7.39648 15.1406C8.60091 12.4062 10.082 9.98112 11.8398 7.86523C13.6302 5.7168 15.9089 3.97526 18.6758 2.64062C21.4753 1.27344 24.4049 0.589844 27.4648 0.589844C30.5247 0.589844 33.0964 1.17578 35.1797 2.34766C37.2956 3.51953 38.9557 5.09831 40.1602 7.08398C42.5365 10.9902 43.7246 15.7266 43.7246 21.293C43.7246 26.8594 41.9831 34.9648 38.5 45.6094C39.7044 42.4193 40.5833 40.1895 41.1367 38.9199C41.7227 37.6504 42.4062 36.0879 43.1875 34.2324C44.0013 32.377 44.6361 30.9284 45.0918 29.8867C45.5475 28.8125 46.2474 27.2663 47.1914 25.248C48.1354 23.1973 48.9492 21.5208 49.6328 20.2188C50.349 18.8841 51.2441 17.2728 52.3184 15.3848C53.4251 13.4642 54.4342 11.8854 55.3457 10.6484C56.2572 9.41146 57.2988 8.10938 58.4707 6.74219C59.6751 5.34245 60.8307 4.23568 61.9375 3.42188C64.444 1.53385 66.8691 0.589844 69.2129 0.589844C74.7467 0.589844 77.5137 4.30078 77.5137 11.7227C77.5137 16.4102 76.5859 22.2207 74.7305 29.1543C74.112 31.4655 73.2493 34.4603 72.1426 38.1387C71.0684 41.7845 70.4661 43.8678 70.3359 44.3887C71.7682 41.752 73.64 37.6341 75.9512 32.0352C78.2624 26.4362 80.2969 22.0254 82.0547 18.8027C83.8125 15.5801 85.5703 12.8294 87.3281 10.5508C89.0859 8.27214 91.1855 6.36784 93.627 4.83789C96.1009 3.30794 98.5423 2.54297 100.951 2.54297C103.393 2.54297 105.313 3.32422 106.713 4.88672C108.145 6.44922 108.861 8.53255 108.861 11.1367C108.861 13.7409 108.406 16.9147 107.494 20.6582C106.583 24.3691 105.46 28.0638 104.125 31.7422C102.79 35.4206 101.456 39.0827 100.121 42.7285C96.8333 51.5501 95.0755 58.4023 94.8477 63.2852C94.8477 65.3685 95.3848 66.4102 96.459 66.4102C97.5658 66.4102 98.8678 65.4661 100.365 63.5781C101.863 61.6901 103.246 59.5579 104.516 57.1816ZM136.693 42.582H144.311L140.453 57.1816C139.835 59.2324 139.525 61.1042 139.525 62.7969C139.525 64.457 139.818 65.2871 140.404 65.2871C140.99 65.2871 141.788 64.7826 142.797 63.7734C143.839 62.7318 144.717 61.6901 145.434 60.6484L146.557 59.0859L148.656 61.0391C147.582 63.1224 146.215 65.0267 144.555 66.752C141.332 70.1048 138.533 71.7812 136.156 71.7812C133.357 71.7812 131.957 69.6165 131.957 65.2871C131.957 64.571 131.99 64.0339 132.055 63.6758C131.566 65.3359 130.639 66.8008 129.271 68.0703C126.667 70.5443 123.721 71.7812 120.434 71.7812C117.178 71.7812 114.558 70.6745 112.572 68.4609C110.619 66.2148 109.643 63.4154 109.643 60.0625C109.643 54.8542 111.335 50.4596 114.721 46.8789C118.106 43.2982 122.077 41.5078 126.635 41.5078C128.913 41.5078 130.801 42.1426 132.299 43.4121C133.796 44.6491 134.773 46.2767 135.229 48.2949L136.693 42.582ZM128.539 45.707C126.651 45.707 124.877 46.5046 123.217 48.0996C121.589 49.6621 120.336 51.5664 119.457 53.8125C118.578 56.026 118.139 58.1908 118.139 60.3066C118.139 62.4225 118.594 64.1315 119.506 65.4336C120.45 66.7357 121.882 67.3867 123.803 67.3867C125.756 67.3867 127.514 66.5078 129.076 64.75C132.038 61.3646 133.52 57.3444 133.52 52.6895C133.52 48.0345 131.859 45.707 128.539 45.707ZM157.934 42.582C161.286 32.1654 164.704 23.4414 168.188 16.4102L174.242 16.8984C173.884 17.9401 173.005 20.4466 171.605 24.418C168.578 33.1745 166.625 39.2292 165.746 42.582H173.412L172.631 45.8047H164.721C161.726 55.0495 160.229 60.681 160.229 62.6992C160.229 64.6849 160.424 65.6777 160.814 65.6777C161.238 65.6777 161.612 65.5964 161.938 65.4336C162.816 64.9453 164.704 62.569 167.602 58.3047L169.604 60.1113C167.423 64.0827 165.176 67.0286 162.865 68.9492C160.554 70.8372 158.65 71.7812 157.152 71.7812C155.655 71.7812 154.516 71.2604 153.734 70.2188C152.986 69.1771 152.611 67.8424 152.611 66.2148C152.611 62.0807 154.06 55.2773 156.957 45.8047H151.83L152.611 42.582H157.934ZM198.656 60.8926L200.658 62.3086C199.226 65.2057 197.012 67.5169 194.018 69.2422C191.055 70.9349 187.947 71.7812 184.691 71.7812C181.436 71.7812 178.686 70.7884 176.439 68.8027C174.226 66.8171 173.119 64.0176 173.119 60.4043C173.119 56.7585 174.226 53.4707 176.439 50.541C178.686 47.6113 181.436 45.3815 184.691 43.8516C187.947 42.2891 191.234 41.5078 194.555 41.5078C198.624 41.5078 201.358 42.4844 202.758 44.4375C203.344 45.2188 203.637 46.2116 203.637 47.416C203.637 48.5879 203.23 49.5807 202.416 50.3945C201.602 51.2083 200.626 51.6152 199.486 51.6152C198.347 51.6152 197.387 51.2572 196.605 50.541C195.824 49.7923 195.434 48.8483 195.434 47.709C195.434 46.5697 196.133 45.528 197.533 44.584C196.296 44.1934 195.157 43.998 194.115 43.998C191.869 43.998 189.802 44.8281 187.914 46.4883C186.026 48.1484 184.594 50.1667 183.617 52.543C182.641 54.8867 182.152 57.1979 182.152 59.4766C182.152 61.7552 182.689 63.5944 183.764 64.9941C184.87 66.3613 186.449 67.0449 188.5 67.0449C190.551 67.0449 192.52 66.4753 194.408 65.3359C196.296 64.1641 197.712 62.6829 198.656 60.8926ZM227.123 66.5078C227.123 64.8151 227.807 62.097 229.174 58.3535C230.541 54.61 231.225 51.9408 231.225 50.3457C231.225 48.7181 230.655 47.9043 229.516 47.9043C228.409 47.9043 227.058 48.7018 225.463 50.2969C223.868 51.8594 222.338 53.7799 220.873 56.0586C218.464 59.737 216.039 63.9362 213.598 68.6562L212.328 71H205.297C206.892 59.2161 208.422 50.4922 209.887 44.8281C211.352 39.1641 212.751 34.3301 214.086 30.3262C215.421 26.3223 216.853 22.7741 218.383 19.6816C221.833 12.5853 225.805 7.32812 230.297 3.91016L234.008 5.61914C230.525 9.10221 227.318 15.2383 224.389 24.0273C221.492 32.7839 218.269 44.877 214.721 60.3066C214.916 59.9811 215.307 59.2975 215.893 58.2559C216.511 57.1816 216.983 56.3841 217.309 55.8633C217.634 55.3099 218.122 54.4961 218.773 53.4219C219.457 52.3477 220.027 51.5013 220.482 50.8828C220.938 50.2318 221.524 49.4342 222.24 48.4902C222.989 47.5462 223.64 46.7975 224.193 46.2441C224.779 45.6582 225.463 45.0397 226.244 44.3887C227.025 43.7051 227.774 43.168 228.49 42.7773C230.15 41.931 231.924 41.5078 233.812 41.5078C235.701 41.5078 237.117 42.0286 238.061 43.0703C239.037 44.112 239.525 45.5117 239.525 47.2695C239.525 49.0273 238.712 51.9896 237.084 56.1562C235.456 60.2904 234.643 62.8457 234.643 63.8223C234.643 64.7988 234.903 65.2871 235.424 65.2871C236.791 65.2871 238.858 63.2201 241.625 59.0859L243.725 61.0391C241.641 64.6198 239.46 67.3053 237.182 69.0957C234.936 70.8861 233.08 71.7812 231.615 71.7812C230.183 71.7812 229.076 71.3255 228.295 70.4141C227.514 69.5026 227.123 68.2005 227.123 66.5078ZM277.807 49.2715L277.27 51.2734C276.293 51.3711 274.747 51.5664 272.631 51.8594C268.301 52.5104 265.144 52.8359 263.158 52.8359C261.205 52.8359 259.48 52.7546 257.982 52.5918C256.518 52.429 254.874 52.2012 253.051 51.9082C251.228 51.5827 249.877 51.3711 248.998 51.2734C248.998 50.8503 249.193 50.1829 249.584 49.2715C250.626 49.1413 252.139 48.9297 254.125 48.6367C258.715 47.9531 261.872 47.6113 263.598 47.6113C265.323 47.6113 266.967 47.709 268.529 47.9043C270.092 48.0996 271.768 48.3438 273.559 48.6367C275.382 48.9297 276.798 49.1413 277.807 49.2715Z" fill="black"/>
<path d="M286.254 71.7812C284.887 71.7812 283.812 71.3581 283.031 70.5117C282.25 69.6654 281.859 68.5098 281.859 67.0449C281.859 65.5475 282.234 63.5293 282.982 60.9902C283.764 58.4186 284.529 56.0911 285.277 54.0078C286.059 51.9245 286.449 50.541 286.449 49.8574C286.449 49.1413 286.221 48.7832 285.766 48.7832C284.626 48.7832 282.787 51.0293 280.248 55.5215L276.977 53.6172C281.762 45.5443 286.156 41.5078 290.16 41.5078C292.895 41.5078 294.262 43.2331 294.262 46.6836C294.262 47.6927 293.936 49.304 293.285 51.5176L289.77 61.5762C289.411 62.5202 289.232 63.3828 289.232 64.1641C289.232 64.9128 289.525 65.2871 290.111 65.2871C291.218 65.2871 293.253 63.2363 296.215 59.1348L298.266 61.0391C296.508 64.2943 294.408 66.8984 291.967 68.8516C289.558 70.8047 287.654 71.7812 286.254 71.7812ZM300.17 27.1035C300.17 28.4056 299.73 29.5938 298.852 30.668C297.973 31.7422 296.785 32.2793 295.287 32.2793C293.79 32.2793 292.667 31.8398 291.918 30.9609C291.169 30.0495 290.795 28.9102 290.795 27.543C290.795 26.1758 291.251 24.9714 292.162 23.9297C293.106 22.8555 294.311 22.3184 295.775 22.3184C297.24 22.3184 298.331 22.7904 299.047 23.7344C299.796 24.6458 300.17 25.7689 300.17 27.1035ZM307.836 42.582C311.189 32.1654 314.607 23.4414 318.09 16.4102L324.145 16.8984C323.786 17.9401 322.908 20.4466 321.508 24.418C318.48 33.1745 316.527 39.2292 315.648 42.582H323.314L322.533 45.8047H314.623C311.628 55.0495 310.131 60.681 310.131 62.6992C310.131 64.6849 310.326 65.6777 310.717 65.6777C311.14 65.6777 311.514 65.5964 311.84 65.4336C312.719 64.9453 314.607 62.569 317.504 58.3047L319.506 60.1113C317.325 64.0827 315.079 67.0286 312.768 68.9492C310.456 70.8372 308.552 71.7812 307.055 71.7812C305.557 71.7812 304.418 71.2604 303.637 70.2188C302.888 69.1771 302.514 67.8424 302.514 66.2148C302.514 62.0807 303.962 55.2773 306.859 45.8047H301.732L302.514 42.582H307.836Z" fill="#E33535"/>
</g>
<defs>
<filter id="filter0_d_1_4" x="0.0273438" y="0.589844" width="328.117" height="79.5332" filterUnits="userSpaceOnUse" color-interpolation-filters="sRGB">
<feFlood flood-opacity="0" result="BackgroundImageFix"/>
<feColorMatrix in="SourceAlpha" type="matrix" values="0 0 0 0 0 0 0 0 0 0 0 0 0 0 0 0 0 0 127 0" result="hardAlpha"/>
<feOffset dy="4"/>
<feGaussianBlur stdDeviation="2"/>
<feComposite in2="hardAlpha" operator="out"/>
<feColorMatrix type="matrix" values="0 0 0 0 0 0 0 0 0 0 0 0 0 0 0 0 0 0 0.25 0"/>
<feBlend mode="normal" in2="BackgroundImageFix" result="effect1_dropShadow_1_4"/>
<feBlend mode="normal" in="SourceGraphic" in2="effect1_dropShadow_1_4" result="shape"/>
</filter>
</defs>
</svg>
