<svg width="93" height="69" viewBox="0 0 93 69" fill="none" xmlns="http://www.w3.org/2000/svg">
<path d="M88.7066 26.0013L63 20.6694L67.504 4.22399e-05L92.6253 3.56801L88.7066 26.0013Z" fill="#3544A1"/>
<path d="M27.8028 68.452L23.1667 22.3387L26.4014 -1.21768e-05H67.5054C67.5054 -1.21768e-05 77.7094 20.0627 69.7574 45.672L69.5907 68.7747L27.8028 68.452Z" fill="#3544A1"/>
<path d="M0 19.0467L21.1507 1.76275L33.2053 14.2521L17.216 33.9534L0 19.0467Z" fill="#3544A1"/>
<path d="M21.5144 15.1C17.4403 12.1418 16.8173 6.78919 20.1236 3.14393C23.4298 -0.501337 29.412 -1.05741 33.4862 1.89951C37.5603 4.85772 38.1818 10.2102 34.877 13.8555C31.5708 17.5008 25.5886 18.0582 21.5144 15.1Z" fill="#3544A1"/>
</svg>
