<svg width="115" height="289" viewBox="0 0 115 289" fill="none" xmlns="http://www.w3.org/2000/svg">
<path d="M112.851 84.0413L87.9359 113.587L77.7065 105.984L98.8172 73.6107L112.851 84.0413Z" fill="#F89B94"/>
<path d="M111.049 71.8093C114.924 74.6893 115.731 80.1667 112.851 84.0413C109.969 87.916 104.493 88.7227 100.619 85.8427C96.7439 82.9613 95.9373 77.4854 98.8173 73.6107C101.697 69.736 107.173 68.9293 111.049 71.8093Z" fill="#F89B94"/>
<path d="M86.6238 104.671C89.4478 106.769 90.0358 110.763 87.9358 113.587C85.8358 116.412 81.8452 117 79.0198 114.9C76.1945 112.8 75.6065 108.808 77.7065 105.984C79.8065 103.159 83.7985 102.572 86.6238 104.671Z" fill="#F89B94"/>
<path d="M111.551 85.4387C107.899 88.5974 102.379 88.1961 99.2199 84.5427C96.0626 80.8907 96.4639 75.3707 100.116 72.2121C103.769 69.0547 109.289 69.4561 112.447 73.1081C115.605 76.7614 115.204 82.2814 111.551 85.4387Z" fill="#F89B94"/>
<path d="M99.22 84.5427L73.396 54.6734L86.624 43.2388L112.447 73.1081L99.22 84.5427Z" fill="#F89B94"/>
<path d="M85.5239 76.7693L69.6479 55.8613L86.6239 43.2386L103.217 62.4333L85.5239 76.7693Z" fill="#3544A1"/>
<path d="M85.728 55.5694C82.076 58.728 76.5546 58.3267 73.396 54.6733C70.2386 51.0213 70.64 45.5 74.292 42.3427C77.944 39.1853 83.4653 39.5867 86.624 43.2387C89.7813 46.8907 89.38 52.412 85.728 55.5694Z" fill="#3544A1"/>
<path d="M87.936 113.587C86.7227 117.729 81.7227 126.461 80.64 126.263C79.5573 126.064 82.3854 117.877 82.3854 117.877L87.936 113.587Z" fill="#F89B94"/>
<path d="M87.936 113.587C83.952 119.912 73.2867 130.48 72.1667 130.064C71.0467 129.649 77.2907 121.583 77.2907 121.583C77.2907 121.583 70.9413 128.491 69.484 127.563C68.028 126.635 75.3107 119.977 75.3107 119.977C75.3107 119.977 66.9693 125.864 66.2627 124.755C65.5547 123.647 73.86 118.113 73.86 118.113C73.86 118.113 65.8094 121.467 65.4534 120.321C65.096 119.175 71.736 116.503 72.9893 115.688C74.2427 114.875 72.1547 110.564 77.7067 105.984L87.936 113.587Z" fill="#F89B94"/>
<path d="M84.8572 103.747C81.5225 102.623 77.9079 104.413 76.7825 107.749C75.6585 111.084 77.4505 114.7 80.7852 115.824C84.1199 116.949 87.7358 115.156 88.8598 111.821C89.9852 108.487 88.1932 104.872 84.8572 103.747Z" fill="#F89B94"/>
<path d="M75.7493 276.231C79.6613 275.739 82.6854 271.827 82.6854 271.827H86.388C85.1174 265.427 85.344 263.449 85.344 263.449L69.104 268.745L69.3147 272.147C70.5893 272.083 71.7747 272.837 72.216 274.035C72.6627 275.241 73.6333 276.496 75.7493 276.231Z" fill="white"/>
<path d="M100.359 280.921C95.8533 278.439 87.976 279.557 86.5347 272.561C86.4827 272.305 86.4374 272.071 86.388 271.827H82.6854C82.6854 271.827 79.6614 275.739 75.7494 276.231C73.6334 276.496 72.6627 275.241 72.216 274.035C71.7747 272.837 70.5894 272.083 69.3147 272.147L70.1547 285.693H105.381C105.381 285.693 104.864 283.404 100.359 280.921Z" fill="#151719"/>
<path d="M76.1986 279.944C74.3186 278.476 72.0093 277.625 69.6453 277.48L69.7013 278.376C71.8506 278.528 73.9386 279.316 75.6479 280.651C77.3093 281.945 78.5519 283.717 79.2386 285.693H80.1799C79.4626 283.437 78.0773 281.409 76.1986 279.944Z" fill="#C4ECFB"/>
<path d="M82.6853 271.827C82.6853 271.828 82.5533 271.995 82.3213 272.257C83.2066 276.925 85.5266 279.964 89.4306 281.516C90.2866 281.856 91.1759 282.019 92.0573 282.019C94.0106 282.019 95.9093 281.208 97.2999 279.765C96.9693 279.675 96.6359 279.585 96.2999 279.501C94.5319 281.071 92.0079 281.58 89.7613 280.684C86.0919 279.224 83.9279 276.325 83.1426 271.827H82.6853Z" fill="#C4ECFB"/>
<path d="M70.1545 285.693L70.3812 288.405H105.608L105.381 285.693H70.1545Z" fill="white"/>
<path d="M7.21191 273.336L10.5452 266.741L24.9132 270.021L23.9452 274.06C23.9452 274.06 20.9212 275.885 14.4692 276.231C8.01857 276.576 7.21191 273.336 7.21191 273.336Z" fill="white"/>
<path d="M9.70936 273.355C9.70936 273.355 12.3107 271.519 15.632 271.656C18.9547 271.795 20.6653 274.087 20.6653 274.087H23.9454L20.5814 285.681H1.36401L7.21203 273.355H9.70936Z" fill="#151719"/>
<path d="M1.364 285.681L0 288.405H19.8893L20.5813 285.681H1.364Z" fill="white"/>
<path d="M1.91455 285.551L2.03454 285.681H3.17187C5.62521 283.753 8.91454 282.705 12.1745 282.888C14.9252 283.036 17.5932 284.055 19.6732 285.681H20.5812L20.6772 285.353C18.3945 283.399 15.3585 282.163 12.2225 281.993C8.43719 281.787 4.58922 283.119 1.91455 285.551Z" fill="#C4ECFB"/>
<path d="M20.6652 274.087C20.6652 274.087 20.6092 274.013 20.5039 273.895C19.9679 275.548 17.8185 281.072 12.9985 281.071C12.9425 281.071 12.8865 281.069 12.8305 281.068C11.5185 281.033 10.5866 280.604 9.98122 279.759C8.65322 277.905 9.29988 274.585 9.60388 273.355H8.68122C8.33056 274.841 7.76923 278.208 9.25189 280.279C10.0212 281.353 11.2172 281.92 12.8052 281.963C12.8719 281.965 12.9372 281.965 13.0012 281.965C18.4719 281.965 20.8306 275.803 21.3812 274.087H20.6652Z" fill="#C4ECFB"/>
<path d="M59.3225 102.86C59.3225 102.86 54.9812 108.827 56.6532 132.119C57.3652 142.035 62.0118 174.155 63.1558 194.268L86.3652 192.805L82.0799 108.987L59.3225 102.86Z" fill="#0F1114"/>
<path d="M63.156 194.268L68.124 269.579H88.1653L86.3653 192.805L63.156 194.268Z" fill="#0F1114"/>
<path d="M86.3653 192.805C86.7693 199.215 81.9013 204.739 75.492 205.141C69.0827 205.545 63.56 200.677 63.156 194.268C62.752 187.859 67.62 182.336 74.0293 181.932C80.4387 181.528 85.9613 186.396 86.3653 192.805Z" fill="#15171A"/>
<path d="M86.3653 192.805C86.7693 199.215 81.9013 204.739 75.492 205.141C69.0827 205.545 63.56 200.677 63.156 194.268C62.752 187.859 67.62 182.336 74.0293 181.932C80.4387 181.528 85.9613 186.396 86.3653 192.805Z" fill="#0F1114"/>
<path d="M20.7891 192.215L6.35449 266.296L25.7305 271.416L43.6025 196.729L20.7891 192.215Z" fill="#0F1114"/>
<path d="M43.6025 196.729C42.3558 203.029 36.2385 207.125 29.9385 205.879C23.6385 204.632 19.5424 198.515 20.7891 192.215C22.0358 185.915 28.1531 181.819 34.4531 183.065C40.7531 184.312 44.8491 190.429 43.6025 196.729Z" fill="#15171A"/>
<path d="M40.2933 108.664C40.2933 108.664 35.428 113.713 31.072 135.057C29.0827 144.799 24.8213 172.476 20.7893 192.215L43.6027 196.729L64.8013 108.291L40.2933 108.664Z" fill="#0F1114"/>
<path d="M43.6025 196.729C42.3558 203.029 36.2385 207.125 29.9385 205.879C23.6385 204.632 19.5424 198.515 20.7891 192.215C22.0358 185.915 28.1531 181.819 34.4531 183.065C40.7531 184.312 44.8491 190.429 43.6025 196.729Z" fill="#0F1114"/>
<path d="M40.2931 108.664L35.6584 62.5506L38.8918 40.2119H79.9958C79.9958 40.2119 90.1998 60.2746 82.2478 85.8839L82.0798 108.987L40.2931 108.664Z" fill="#3544A1"/>
<path d="M80.0266 57.6972C75.1986 57.7066 71.2773 53.7986 71.2693 48.9706C71.2613 44.1426 75.168 40.2212 79.996 40.2119C84.8253 40.2039 88.7453 44.1119 88.7533 48.9399C88.7626 53.7679 84.856 57.6892 80.0266 57.6972Z" fill="#3544A1"/>
<path d="M17.8252 71.7399C22.1732 73.8386 23.9985 79.0639 21.9012 83.4132C19.8025 87.7612 14.5772 89.5866 10.2279 87.4879C5.87986 85.3906 4.05455 80.1652 6.15322 75.8159C8.25055 71.4679 13.4759 69.6426 17.8252 71.7399Z" fill="#F89B94"/>
<path d="M7.23853 74.1054L21.1065 57.0147L29.7079 74.1653L20.8145 85.124L7.23853 74.1054Z" fill="#F89B94"/>
<path d="M12.4905 59.2586L33.6412 41.9747L45.6958 54.464L29.7078 74.1653L12.4905 59.2586Z" fill="#3544A1"/>
<path d="M33.3985 55.744C29.6492 52.7013 29.0772 47.1959 32.1185 43.4466C35.1612 39.6972 40.6665 39.1253 44.4158 42.1666C48.1652 45.2093 48.7385 50.7146 45.6958 54.464C42.6532 58.2133 37.1478 58.7866 33.3985 55.744Z" fill="#3544A1"/>
<path d="M20.6572 73.916L44.0039 104.715L34.3372 113.023L7.39722 85.3134L20.6572 73.916Z" fill="#F89B94"/>
<path d="M8.32799 72.9854C11.9907 69.8374 17.5093 70.2547 20.6573 73.916C23.804 77.5774 23.3867 83.0974 19.7253 86.2454C16.064 89.3921 10.544 88.9747 7.39733 85.3134C4.24933 81.6521 4.66666 76.132 8.32799 72.9854Z" fill="#F89B94"/>
<path d="M35.0174 104.036C37.6867 101.741 41.7094 102.045 44.004 104.715C46.2987 107.384 45.9947 111.408 43.3253 113.703C40.656 115.996 36.632 115.692 34.3374 113.023C32.044 110.353 32.348 106.331 35.0174 104.036Z" fill="#F89B94"/>
<path d="M44.0039 104.715C47.7786 106.809 55.1972 113.607 54.7652 114.62C54.3346 115.632 46.9692 111.073 46.9692 111.073L44.0039 104.715Z" fill="#F89B94"/>
<path d="M44.0038 104.715C49.2985 109.992 57.2638 122.719 56.6118 123.72C55.9612 124.721 49.4652 116.857 49.4652 116.857C49.4652 116.857 54.8065 124.571 53.5812 125.788C52.3558 127.005 47.4625 118.437 47.4625 118.437C47.4625 118.437 51.3718 127.867 50.1345 128.313C48.8972 128.761 45.3265 119.441 45.3265 119.441C45.3265 119.441 46.8278 128.033 45.6318 128.129C44.4345 128.225 43.2865 121.16 42.7678 119.759C42.2492 118.356 37.5852 119.447 34.3372 113.023L44.0038 104.715Z" fill="#F89B94"/>
<path d="M33.7266 105.555C31.8972 108.561 32.8506 112.483 35.8572 114.313C38.8626 116.143 42.7839 115.189 44.6146 112.183C46.4439 109.177 45.4906 105.256 42.4853 103.425C39.4786 101.596 35.5572 102.549 33.7266 105.555Z" fill="#F89B94"/>
<path d="M52.9124 21.3548L53.6163 39.5814H68.827L67.6896 32.3281L52.9124 21.3548Z" fill="#F89B94"/>
<path d="M66.8178 33.8587C67.2458 33.9 67.6058 33.8893 67.9284 33.856L68.3871 36.7733C60.9818 36.296 58.6191 28.7253 58.6191 28.7253H58.6218C60.2591 30.5613 64.8711 33.676 66.8178 33.8587Z" fill="#151719"/>
<path d="M56.1457 23.688C56.1457 23.688 57.1003 27.0307 58.2403 28.7374C59.3417 30.3854 66.1163 35.8787 69.7816 33.4694C72.5883 31.6254 73.1456 26.9334 73.2869 23.6787C73.4509 19.9067 73.507 15.5947 72.9737 12.1774L60.3163 9.66806L55.647 19.9947L56.1457 23.688Z" fill="#F89B94"/>
<path d="M71.3324 15.8334C71.4364 15.8334 71.5377 15.7801 71.5977 15.6854C71.6897 15.5401 71.6458 15.3467 71.4991 15.2547C70.6911 14.7427 69.6457 14.7187 68.7777 15.1907C68.6257 15.2734 68.5697 15.4641 68.651 15.6161C68.735 15.7681 68.9258 15.8241 69.0764 15.7427C69.7471 15.3774 70.5484 15.3961 71.1658 15.7841C71.2164 15.8174 71.2751 15.8334 71.3324 15.8334Z" fill="#151719"/>
<path d="M66.2402 15.9481C66.3375 15.9481 66.4322 15.9041 66.4935 15.8201C66.5948 15.6801 66.5655 15.4841 66.4242 15.3815C65.5482 14.7428 64.2882 14.6881 63.3602 15.2548C63.2122 15.3454 63.1668 15.5374 63.2561 15.6854C63.3481 15.8334 63.5388 15.8788 63.6868 15.7908C64.4041 15.3521 65.3775 15.3934 66.0561 15.8881C66.1121 15.9294 66.1762 15.9481 66.2402 15.9481Z" fill="#151719"/>
<path d="M68.1097 27.7494C68.2137 27.7494 68.3176 27.7441 68.423 27.7321C68.595 27.7134 68.7203 27.5601 68.7003 27.3881C68.683 27.2161 68.535 27.0894 68.3563 27.1094C67.1043 27.2467 65.8243 26.3494 65.3963 25.0307C65.343 24.8667 65.1656 24.7761 65.0003 24.8307C64.8363 24.8841 64.7457 25.0614 64.799 25.2254C65.283 26.7121 66.6697 27.7494 68.1097 27.7494Z" fill="#151719"/>
<path d="M68.2697 25.2706C68.4764 25.2706 68.7817 25.2333 69.0284 25.052C69.2377 24.8973 69.3684 24.668 69.4057 24.388C69.5137 23.612 68.4564 19.664 68.2431 18.88C68.1964 18.7133 68.0217 18.6146 67.8577 18.6613C67.6911 18.7066 67.5924 18.8787 67.6377 19.0453C68.1191 20.812 68.8537 23.8013 68.787 24.304C68.7657 24.4506 68.703 24.512 68.659 24.5453C68.5004 24.6613 68.223 24.648 68.131 24.6347C67.9644 24.608 67.799 24.724 67.7724 24.8947C67.743 25.064 67.8577 25.224 68.0271 25.2546C68.0524 25.2573 68.1417 25.2706 68.2697 25.2706Z" fill="#151719"/>
<path d="M52.9189 10.06C52.9189 10.06 44.4856 7.4947 52.3616 21.596L53.1829 28.3827L55.9696 24.4947L57.8883 20.98L59.1269 24.2053H59.8403L59.6456 16.5121C59.6456 16.5121 62.4309 15.5787 62.2763 11.904C62.2763 11.904 74.7216 15.5094 76.6269 11.152L74.4136 8.03334L72.9016 8.84805C72.9016 8.84805 74.9376 6.81072 75.1136 3.60938L72.2016 6.17071C72.2016 6.17071 74.2976 3.55201 72.2016 0.174681L68.5202 6.65775e-06C68.5202 6.65775e-06 67.6269 1.92136 64.5243 3.31869C60.8109 4.99069 50.9816 3.53203 52.9189 10.06Z" fill="#151719"/>
<path d="M58.0976 22.0894C58.0976 23.768 56.7363 25.1281 55.0576 25.1281C53.379 25.1281 52.0176 23.768 52.0176 22.0894C52.0176 20.4107 53.379 19.0494 55.0576 19.0494C56.7363 19.0494 58.0976 20.4107 58.0976 22.0894Z" fill="#F89B94"/>
<path d="M62.4829 46.3453L65.7616 40.2533L69.7083 46.0133C69.7083 46.0133 70.9803 41.436 70.9736 40.2133L68.1709 35.3974L65.6709 38.8747L53.3736 33.3147L52.3616 40.212L62.4829 46.3453Z" fill="white"/>
<path d="M60.347 4.23201C60.767 4.17334 61.1803 4.11333 61.5816 4.05199C60.9536 5.87599 60.115 7.63334 58.9217 9.13468C57.343 11.1253 55.2657 12.7453 52.8883 13.6386C51.715 14.08 50.4977 14.3253 49.2603 14.4613C49.0577 13.628 48.987 12.9453 49.0097 12.3827C50.7457 11.9387 52.4216 11.26 53.967 10.352C56.5323 8.84799 58.7256 6.72534 60.347 4.23201Z" fill="#151719"/>
<path d="M62.6084 19.3947C63.7977 19.308 64.9884 19.2213 66.1791 19.1333" stroke="#151719" stroke-width="0.626049" stroke-miterlimit="10" stroke-linecap="round" stroke-linejoin="round"/>
<path d="M69.1096 19.0681C70.095 19.2134 70.8283 19.3587 71.8123 19.5054" stroke="#151719" stroke-width="0.626049" stroke-miterlimit="10" stroke-linecap="round" stroke-linejoin="round"/>
<path d="M69.5816 19.076C69.439 19.32 69.347 19.6306 69.351 19.9786C69.3603 20.7399 69.7923 21.3519 70.3123 21.3453C70.835 21.3386 71.2483 20.716 71.239 19.956C71.2376 19.7306 71.1883 19.5279 71.1217 19.3413L69.5816 19.076Z" fill="#151719"/>
<path d="M63.4951 19.3214C63.4644 19.4574 63.4391 19.5974 63.4405 19.7494C63.4498 20.5107 63.8804 21.1227 64.4031 21.116C64.9231 21.1094 65.3391 20.488 65.3298 19.7267C65.3271 19.552 65.2965 19.388 65.2551 19.2334L63.4951 19.3214Z" fill="#151719"/>
</svg>
