<svg width="123" height="289" viewBox="0 0 123 289" fill="none" xmlns="http://www.w3.org/2000/svg">
<path d="M114.078 118.063C117.314 120.92 123.097 129.153 122.458 130.049C121.82 130.945 115.606 124.909 115.606 124.909L114.078 118.063Z" fill="#F89B94"/>
<path d="M75.75 276.231C79.6615 275.739 82.6851 271.827 82.6851 271.827H86.3878C85.1171 265.427 85.3437 263.449 85.3437 263.449L69.1038 268.745L69.3147 272.147C70.5896 272.083 71.7746 272.837 72.2162 274.035C72.6626 275.241 73.6339 276.496 75.75 276.231Z" fill="white"/>
<path d="M100.358 280.921C95.8531 278.439 87.9758 279.557 86.5344 272.561C86.4824 272.305 86.4371 272.071 86.3878 271.827H82.6851C82.6851 271.827 79.6615 275.739 75.75 276.231C73.6339 276.496 72.6626 275.241 72.2162 274.035C71.7746 272.837 70.5896 272.083 69.3147 272.147L70.1547 285.693H105.381C105.381 285.693 104.864 283.404 100.358 280.921Z" fill="#151719"/>
<path d="M76.1983 279.944C74.3187 278.476 72.0094 277.625 69.6453 277.48L69.7005 278.376C71.8499 278.528 73.9385 279.316 75.6474 280.651C77.3089 281.945 78.5526 283.717 79.2379 285.693H80.1802C79.4625 283.437 78.077 281.409 76.1983 279.944Z" fill="#C4ECFB"/>
<path d="M82.685 271.827C82.685 271.828 82.553 271.995 82.321 272.257C83.2064 276.925 85.5264 279.964 89.4304 281.516C90.2864 281.856 91.1757 282.019 92.057 282.019C94.0104 282.019 95.909 281.208 97.2997 279.765C96.969 279.675 96.6357 279.585 96.2997 279.501C94.5317 281.071 92.009 281.58 89.761 280.684C86.0917 279.224 83.9277 276.325 83.1424 271.827H82.685Z" fill="#C4ECFB"/>
<path d="M70.1547 285.693L70.3808 288.405H105.608L105.381 285.693H70.1547Z" fill="white"/>
<path d="M7.21204 273.336L10.5443 266.741L24.9136 270.021L23.9459 274.06C23.9459 274.06 20.9214 275.885 14.4704 276.231C8.01937 276.576 7.21204 273.336 7.21204 273.336Z" fill="white"/>
<path d="M9.70947 273.355C9.70947 273.355 12.3099 271.519 15.6317 271.656C18.9541 271.795 20.6656 274.087 20.6656 274.087H23.9459L20.5817 285.681H1.36414L7.212 273.355H9.70947Z" fill="#151719"/>
<path d="M1.36413 285.681L0 288.405H19.8891L20.5817 285.681H1.36413Z" fill="white"/>
<path d="M1.91565 285.551L2.03392 285.681H3.17138C5.62458 283.753 8.91471 282.705 12.1735 282.888C14.9251 283.036 17.5929 284.055 19.6735 285.681H20.5818L20.6766 285.353C18.3943 283.399 15.3584 282.163 12.223 281.993C8.43751 281.787 4.58965 283.119 1.91565 285.551Z" fill="#C4ECFB"/>
<path d="M20.6657 274.087C20.6657 274.087 20.6095 274.013 20.5038 273.895C19.9678 275.548 17.8189 281.072 12.999 281.071C12.9429 281.071 12.8866 281.069 12.8303 281.068C11.5194 281.033 10.5871 280.604 9.98086 279.759C8.65272 277.905 9.29899 274.585 9.60379 273.355H8.68139C8.33139 274.841 7.76939 278.208 9.25166 280.279C10.0209 281.353 11.2173 281.92 12.8058 281.963C12.8714 281.965 12.9371 281.965 13.0017 281.965C18.4725 281.965 20.8303 275.803 21.3814 274.087H20.6657Z" fill="#C4ECFB"/>
<path d="M59.3224 102.86C59.3224 102.86 54.9813 108.827 56.6532 132.119C57.365 142.035 62.0114 174.155 63.1552 194.268L86.365 192.805L82.0797 108.987L59.3224 102.86Z" fill="#15171A"/>
<path d="M63.1552 194.268L68.1239 269.579H88.165L86.365 192.805L63.1552 194.268Z" fill="#15171A"/>
<path d="M86.3651 192.805C86.7691 199.215 81.9011 204.739 75.4918 205.141C69.0823 205.545 63.5595 200.677 63.1552 194.268C62.7516 187.859 67.6194 182.336 74.0292 181.932C80.4375 181.528 85.9611 186.396 86.3651 192.805Z" fill="#15171A"/>
<path d="M86.3651 192.805C86.7691 199.215 81.9011 204.739 75.4918 205.141C69.0823 205.545 63.5595 200.677 63.1552 194.268C62.7516 187.859 67.6194 182.336 74.0292 181.932C80.4375 181.528 85.9611 186.396 86.3651 192.805Z" fill="#15171A"/>
<path d="M20.7891 192.215L6.35413 266.296L25.7308 271.416L43.6027 196.729L20.7891 192.215Z" fill="#15171A"/>
<path d="M43.6026 196.729C42.3557 203.029 36.2379 207.125 29.9385 205.879C23.6379 204.632 19.5427 198.515 20.789 192.215C22.0359 185.915 28.1531 181.819 34.4537 183.065C40.7531 184.312 44.8489 190.429 43.6026 196.729Z" fill="#15171A"/>
<path d="M40.2932 108.664C40.2932 108.664 35.4287 113.713 31.0719 135.057C29.0828 144.799 24.8213 172.476 20.7891 192.215L43.6027 196.729L64.8016 108.291L40.2932 108.664Z" fill="#15171A"/>
<path d="M43.6026 196.729C42.3557 203.029 36.2379 207.125 29.9385 205.879C23.6379 204.632 19.5427 198.515 20.789 192.215C22.0359 185.915 28.1531 181.819 34.4537 183.065C40.7531 184.312 44.8489 190.429 43.6026 196.729Z" fill="#15171A"/>
<path d="M97.8998 82.964L114.078 118.063L102.852 124.099L82.4998 91.2426L97.8998 82.964Z" fill="#F89B94"/>
<path d="M86.0598 79.404C90.3131 77.1173 95.6131 78.712 97.8998 82.964C100.186 87.2173 98.5918 92.5173 94.3384 94.804C90.0864 97.0907 84.7851 95.496 82.4998 91.2427C80.2131 86.9907 81.8078 81.6893 86.0598 79.404Z" fill="#F89B94"/>
<path d="M105.448 115.467C108.548 113.8 112.412 114.963 114.078 118.063C115.745 121.163 114.582 125.027 111.482 126.693C108.382 128.36 104.518 127.197 102.852 124.099C101.185 120.997 102.348 117.133 105.448 115.467Z" fill="#F89B94"/>
<path d="M92.4557 95.5494C87.7917 96.796 82.9997 94.0241 81.753 89.3601C80.5073 84.6947 83.2784 79.9041 87.9437 78.6574C92.6077 77.4121 97.3997 80.1827 98.645 84.848C99.8917 89.512 97.1197 94.304 92.4557 95.5494Z" fill="#F89B94"/>
<path d="M81.7531 89.3601L71.5636 51.2121L88.4557 46.7001L98.6451 84.8481L81.7531 89.3601Z" fill="#F89B94"/>
<path d="M72.8261 76.3853L71.2672 49.1159L88.4558 46.7L95.0037 71.2132L72.8261 76.3853Z" fill="#3544A1"/>
<path d="M82.2664 57.4027C77.6011 58.6493 72.8095 55.8773 71.5636 51.212C70.3172 46.548 73.0885 41.756 77.7537 40.5093C82.4184 39.264 87.2104 42.036 88.4557 46.7C89.7024 51.3653 86.9304 56.1573 82.2664 57.4027Z" fill="#3544A1"/>
<path d="M40.2931 108.664L37.5166 71.8559L38.8917 40.2119H79.9963C79.9963 40.2119 90.1997 60.2746 82.2477 85.8839L82.0797 108.987L40.2931 108.664Z" fill="#3544A1"/>
<path d="M80.027 57.6972C75.1989 57.7066 71.2776 53.7986 71.2693 48.9706C71.2604 44.1426 75.1677 40.2212 79.9964 40.2119C84.825 40.2039 88.745 44.1119 88.7544 48.9399C88.7624 53.7679 84.8557 57.6892 80.027 57.6972Z" fill="#3544A1"/>
<path d="M29.4573 78.5239C34.2849 78.5839 38.1505 82.5452 38.0922 87.3732C38.0327 92.2012 34.0713 96.0666 29.2431 96.0079C24.4155 95.9492 20.5489 91.9879 20.6083 87.1599C20.6677 82.3306 24.6291 78.4652 29.4573 78.5239Z" fill="#F89B94"/>
<path d="M20.8672 85.1506L26.1948 63.7946L41.2484 75.6892L37.8323 89.3826L20.8672 85.1506Z" fill="#F89B94"/>
<path d="M19.3385 69.476L31.1808 44.8613L47.3896 51.072L41.2484 75.6893L19.3385 69.476Z" fill="#3544A1"/>
<path d="M36.7912 57.4387C32.1063 56.2694 29.2563 51.524 30.4251 46.8387C31.5932 42.1547 36.338 39.304 41.0229 40.4733C45.7079 41.6413 48.5584 46.3867 47.3896 51.072C46.2208 55.756 41.4761 58.6067 36.7912 57.4387Z" fill="#3544A1"/>
<path d="M114.078 118.063C118.114 124.355 123.156 138.497 122.304 139.335C121.453 140.173 116.8 131.096 116.8 131.096C116.8 131.096 120.358 139.777 118.901 140.703C117.442 141.628 114.505 132.208 114.505 132.208C114.505 132.208 116.296 142.257 114.992 142.428C113.686 142.599 112.202 132.729 112.202 132.729C112.202 132.729 111.822 141.443 110.633 141.279C109.442 141.116 109.841 133.968 109.636 132.489C109.432 131.008 104.642 131.071 102.852 124.099L114.078 118.063Z" fill="#F89B94"/>
<path d="M103.861 116.673C101.428 119.216 101.516 123.251 104.058 125.684C106.601 128.117 110.634 128.029 113.068 125.488C115.502 122.945 115.414 118.911 112.872 116.477C110.329 114.044 106.296 114.131 103.861 116.673Z" fill="#F89B94"/>
<path d="M37.6615 84.556L47.3662 121.965L35.2484 125.916L21.0386 89.976L37.6615 84.556Z" fill="#F89B94"/>
<path d="M26.6402 78.9547C31.2309 77.4587 36.1651 79.9653 37.6615 84.556C39.1584 89.1467 36.6506 94.0813 32.0599 95.5773C27.4699 97.0747 22.535 94.5666 21.0386 89.976C19.5423 85.3853 22.0495 80.4507 26.6402 78.9547Z" fill="#F89B94"/>
<path d="M39.3323 117.883C42.6781 116.792 46.2756 118.62 47.3661 121.965C48.4573 125.312 46.6292 128.909 43.2828 130C39.9365 131.091 36.3396 129.263 35.2484 125.916C34.1579 122.571 35.986 118.973 39.3323 117.883Z" fill="#F89B94"/>
<path d="M47.3661 121.965C50.0442 125.351 54.2781 134.479 53.4906 135.248C52.7026 136.016 47.6578 128.976 47.6578 128.976L47.3661 121.965Z" fill="#F89B94"/>
<path d="M47.3661 121.965C50.2245 128.873 52.6808 143.685 51.6943 144.359C50.7079 145.033 47.7365 135.275 47.7365 135.275C47.7365 135.275 49.7016 144.449 48.1027 145.101C46.5032 145.753 45.2808 135.963 45.2808 135.963C45.2808 135.963 45.262 146.171 43.9484 146.107C42.6344 146.044 42.9219 136.068 42.9219 136.068C42.9219 136.068 41.0041 144.575 39.8625 144.204C38.7208 143.832 40.3792 136.869 40.4396 135.377C40.5 133.883 35.7756 133.096 35.2484 125.916L47.3661 121.965Z" fill="#F89B94"/>
<path d="M37.5578 118.789C34.712 120.86 34.0833 124.845 36.1546 127.691C38.2261 130.537 42.212 131.165 45.0578 129.095C47.9032 127.023 48.5308 123.037 46.4598 120.191C44.389 117.345 40.4032 116.717 37.5578 118.789Z" fill="#F89B94"/>
<path d="M51.9119 21.3548L52.6145 39.5814H67.8252L66.6892 32.3281L51.9119 21.3548Z" fill="#F89B94"/>
<path d="M65.8186 33.8587C66.2466 33.9 66.6039 33.8893 66.9292 33.856L67.3852 36.7733C59.9826 36.296 57.6172 28.7253 57.6172 28.7253H57.6199C59.2599 30.5613 63.8719 33.676 65.8186 33.8587Z" fill="#151719"/>
<path d="M55.1451 23.688C55.1451 23.688 56.0998 27.0307 57.2398 28.7374C58.3398 30.3854 65.1145 35.8787 68.7798 33.4694C71.5878 31.6254 72.1452 26.9334 72.2852 23.6787C72.4492 19.9067 72.5065 15.5947 71.9732 12.1774L59.3158 9.66806L54.6465 19.9947L55.1451 23.688Z" fill="#F89B94"/>
<path d="M62.4399 19.7494C62.4492 20.5107 62.8798 21.1227 63.4012 21.116C63.9225 21.1094 64.3371 20.488 64.3278 19.7267C64.3198 18.9654 63.8878 18.3534 63.3678 18.36C62.8452 18.3667 62.4305 18.9894 62.4399 19.7494Z" fill="#151719"/>
<path d="M70.3305 15.8334C70.4358 15.8334 70.5372 15.7801 70.5972 15.6854C70.6892 15.5401 70.6452 15.3467 70.4985 15.2547C69.6905 14.7427 68.6465 14.7187 67.7758 15.1907C67.6238 15.2734 67.5678 15.4641 67.6505 15.6161C67.7332 15.7681 67.9251 15.8241 68.0758 15.7427C68.7478 15.3774 69.5465 15.3961 70.1638 15.7841C70.2158 15.8174 70.2732 15.8334 70.3305 15.8334Z" fill="#151719"/>
<path d="M65.2398 15.9481C65.3358 15.9481 65.4318 15.9041 65.4931 15.8201C65.5958 15.6801 65.5637 15.4841 65.4251 15.3815C64.5464 14.7428 63.2864 14.6881 62.3598 15.2548C62.2118 15.3454 62.1651 15.5374 62.2557 15.6854C62.3464 15.8334 62.5397 15.8788 62.6864 15.7908C63.4024 15.3521 64.3771 15.3934 65.0544 15.8881C65.1104 15.9294 65.1745 15.9481 65.2398 15.9481Z" fill="#151719"/>
<path d="M67.2692 25.2706C67.4772 25.2706 67.7799 25.2333 68.0292 25.052C68.2372 24.8973 68.3679 24.668 68.4066 24.388C68.5119 23.612 67.4545 19.664 67.2425 18.88C67.1958 18.7133 67.0226 18.6146 66.8572 18.6613C66.6906 18.7066 66.5919 18.8787 66.6372 19.0453C67.1172 20.812 67.8532 23.8013 67.7852 24.304C67.7652 24.4506 67.7039 24.512 67.6585 24.5453C67.4985 24.6613 67.2212 24.648 67.1305 24.6347C66.9639 24.608 66.7986 24.724 66.7706 24.8947C66.7426 25.064 66.8572 25.224 67.0279 25.2546C67.0505 25.2573 67.1425 25.2706 67.2692 25.2706Z" fill="#151719"/>
<path d="M51.9185 10.06C51.9185 10.06 43.4852 7.4947 51.3625 21.596L52.1825 28.3827L54.9691 24.4947L56.8864 20.98L58.1251 24.2053H58.8385L58.6451 16.5121C58.6451 16.5121 61.4304 15.5787 61.2758 11.904C61.2758 11.904 73.7198 15.5094 75.6251 11.152L73.4131 8.03334L71.8998 8.84805C71.8998 8.84805 73.9371 6.81071 74.1118 3.60938L71.2025 6.17071C71.2025 6.17071 73.2971 3.55202 71.2025 0.174681L67.5198 5.72205e-06C67.5198 5.72205e-06 66.6265 1.92136 63.5238 3.31869C59.8105 4.99069 49.9811 3.53203 51.9185 10.06Z" fill="#151719"/>
<path d="M57.0971 22.0894C57.0971 23.768 55.7358 25.1281 54.0571 25.1281C52.3785 25.1281 51.0171 23.768 51.0171 22.0894C51.0171 20.4107 52.3785 19.0494 54.0571 19.0494C55.7358 19.0494 57.0971 20.4107 57.0971 22.0894Z" fill="#F89B94"/>
<path d="M61.4825 46.3453L64.7612 40.2533L68.7079 46.0133C68.7079 46.0133 69.9812 41.436 69.9745 40.2133L67.1692 35.3974L64.6692 38.8747L52.3732 33.3147L51.3625 40.212L61.4825 46.3453Z" fill="white"/>
<path d="M59.3452 4.23201C59.7665 4.17334 60.1785 4.11333 60.5812 4.05199C59.9519 5.87599 59.1132 7.63334 57.9212 9.13468C56.3412 11.1253 54.2665 12.7453 51.8865 13.6386C50.7132 14.08 49.4959 14.3253 48.2599 14.4613C48.0572 13.628 47.9865 12.9453 48.0092 12.3827C49.7452 11.9387 51.4212 11.26 52.9665 10.352C55.5319 8.84799 57.7239 6.72534 59.3452 4.23201Z" fill="#151719"/>
<path d="M68.6011 19.9135C69.2024 19.3655 70.2037 19.3255 70.845 19.8255" stroke="#151719" stroke-width="0.626049" stroke-miterlimit="10" stroke-linecap="round" stroke-linejoin="round"/>
<path d="M67.1705 26.4681C65.6185 26.4107 64.1411 25.4027 63.5211 23.9787C63.5211 23.9787 62.4477 27.3707 64.7224 28.1734C66.9957 28.9747 67.1705 26.4681 67.1705 26.4681Z" fill="white"/>
</svg>
