<svg width="128" height="295" viewBox="0 0 128 295" fill="none" xmlns="http://www.w3.org/2000/svg">
<path d="M70 292L70.2253 294.712H105.453L105.225 292H70Z" fill="white"/>
<path d="M1.36266 290.709L0 293.433H19.888L20.58 290.709H1.36266Z" fill="white"/>
<path d="M1.91455 290.578L2.03322 290.709H3.17056C5.62389 288.781 8.91323 287.733 12.1732 287.915C14.9239 288.063 17.5919 289.082 19.6719 290.709H20.5799L20.6759 290.381C18.3932 288.426 15.3572 287.19 12.2212 287.021C8.43589 286.814 4.58788 288.146 1.91455 290.578Z" fill="#C4ECFB"/>
<path d="M75.3864 282.283C79.2971 281.791 82.3211 277.879 82.3211 277.879H86.0238C84.7531 271.479 84.9798 269.502 84.9798 269.502L68.7397 274.798L68.9504 278.199C70.2264 278.135 71.4104 278.89 71.8518 280.087C72.2984 281.294 73.2691 282.548 75.3864 282.283Z" fill="white"/>
<path d="M99.9944 286.974C95.4878 284.491 87.6118 285.61 86.1705 278.614C86.1185 278.358 86.0718 278.123 86.0238 277.879H82.3211C82.3211 277.879 79.2971 281.791 75.3864 282.283C73.2691 282.548 72.2984 281.294 71.8518 280.087C71.4104 278.89 70.2264 278.135 68.9504 278.199L69.7904 291.746H105.016C105.016 291.746 104.5 289.456 99.9944 286.974Z" fill="#151719"/>
<path d="M75.8346 285.996C73.9546 284.528 71.6453 283.678 69.2812 283.532L69.3373 284.428C71.4866 284.58 73.5746 285.368 75.2839 286.703C76.9453 287.998 78.1892 289.77 78.8732 291.746H79.8159C79.0986 289.49 77.7133 287.462 75.8346 285.996Z" fill="#C4ECFB"/>
<path d="M82.3199 277.879C82.3199 277.88 82.1893 278.047 81.9573 278.31C82.8426 282.978 85.1626 286.016 89.0666 287.568C89.9226 287.908 90.8119 288.071 91.6933 288.071C93.6466 288.071 95.5453 287.26 96.936 285.818C96.6066 285.727 96.2733 285.638 95.9346 285.554C94.168 287.123 91.6453 287.632 89.3973 286.736C85.7279 285.276 83.5639 282.378 82.7786 277.879H82.3213H82.3199Z" fill="#C4ECFB"/>
<path d="M6.8479 279.388L10.1812 272.794L24.5506 276.074L23.5812 280.112C23.5812 280.112 20.5572 281.938 14.1066 282.283C7.65458 282.628 6.8479 279.388 6.8479 279.388Z" fill="white"/>
<path d="M9.34534 279.407C9.34534 279.407 11.9467 277.571 15.268 277.708C18.5907 277.847 20.3013 280.139 20.3013 280.139H23.5813L20.2173 291.734H1L6.848 279.407H9.34534Z" fill="#151719"/>
<path d="M20.3012 280.139C20.3012 280.139 20.2452 280.066 20.1399 279.947C19.6039 281.6 17.4545 287.124 12.6345 287.123C12.5785 287.123 12.5225 287.122 12.4665 287.12C11.1545 287.086 10.2225 286.656 9.61721 285.811C8.28787 283.958 8.93455 280.638 9.23988 279.407H8.31721C7.96654 280.894 7.40521 284.26 8.88788 286.331C9.65721 287.406 10.8532 287.972 12.4426 288.015C12.5079 288.018 12.5732 288.018 12.6385 288.018C18.1079 288.018 20.4665 281.855 21.0172 280.139H20.3012Z" fill="#C4ECFB"/>
<path d="M58.9586 108.913C58.9586 108.913 54.6186 114.879 56.2892 138.171C57.0012 148.087 61.6479 180.207 62.7906 200.321L86.0012 198.858L81.7172 115.039L58.9586 108.913Z" fill="#0C0D12"/>
<path d="M62.7905 200.32L67.7599 275.631H87.8012L86.0012 198.858L62.7905 200.32Z" fill="#0C0D12"/>
<path d="M86.0013 198.858C86.4053 205.267 81.5373 210.791 75.128 211.194C68.7186 211.598 63.196 206.73 62.7906 200.321C62.388 193.911 67.256 188.389 73.6653 187.985C80.0746 187.581 85.5973 192.449 86.0013 198.858Z" fill="#15171A"/>
<path d="M86.0013 198.858C86.4053 205.267 81.5373 210.791 75.128 211.194C68.7186 211.598 63.196 206.73 62.7906 200.321C62.388 193.911 67.256 188.389 73.6653 187.985C80.0746 187.581 85.5973 192.449 86.0013 198.858Z" fill="#0C0D12"/>
<path d="M20.4251 198.267L5.99048 272.348L25.3665 277.468L43.2385 202.782L20.4251 198.267Z" fill="#0C0D12"/>
<path d="M43.2384 202.782C41.9918 209.082 35.8731 213.178 29.5744 211.931C23.2744 210.684 19.1784 204.567 20.4251 198.267C21.6718 191.967 27.7891 187.871 34.0891 189.118C40.3891 190.364 44.4851 196.482 43.2384 202.782Z" fill="#15171A"/>
<path d="M39.9293 114.716C39.9293 114.716 35.0653 119.766 30.708 141.11C28.7186 150.851 24.4573 178.528 20.4253 198.267L43.2386 202.782L64.4373 114.343L39.9293 114.716Z" fill="#0C0D12"/>
<path d="M43.2384 202.782C41.9918 209.082 35.8731 213.178 29.5744 211.931C23.2744 210.684 19.1784 204.567 20.4251 198.267C21.6718 191.967 27.7891 187.871 34.0891 189.118C40.3891 190.364 44.4851 196.482 43.2384 202.782Z" fill="#0C0D12"/>
<path d="M110.061 61.6165L107.749 23.0377L120.401 21.4965L127.417 59.5031L110.061 61.6165Z" fill="#F89D95"/>
<path d="M119.796 69.2378C115.003 69.8218 110.644 66.4085 110.061 61.6165C109.477 56.8245 112.889 52.4645 117.681 51.8818C122.474 51.2978 126.833 54.7098 127.417 59.5032C128.001 64.2952 124.588 68.6551 119.796 69.2378Z" fill="#F89D95"/>
<path d="M114.845 28.5926C111.352 29.0193 108.176 26.5313 107.749 23.038C107.324 19.5433 109.812 16.3673 113.305 15.942C116.8 15.5153 119.977 18.0033 120.401 21.4967C120.828 24.9913 118.34 28.1686 114.845 28.5926Z" fill="#F89D95"/>
<path d="M127.394 61.7886C126.716 66.5699 122.289 69.8938 117.509 69.2152C112.729 68.5365 109.404 64.1112 110.084 59.3312C110.761 54.5499 115.188 51.2259 119.968 51.9032C124.748 52.5832 128.073 57.0086 127.394 61.7886Z" fill="#F89D95"/>
<path d="M117.509 69.2152L78.4172 63.6646L80.8746 46.3526L119.968 51.9032L117.509 69.2152Z" fill="#F89D95"/>
<path d="M102.077 72.3539L76.3706 67.0219L80.8746 46.3526L105.996 49.9205L102.077 72.3539Z" fill="#3544A1"/>
<path d="M88.3012 56.2379C87.6225 61.0179 83.1971 64.3432 78.4171 63.6645C73.6371 62.9859 70.3118 58.5592 70.9905 53.7792C71.6691 48.9992 76.0945 45.6739 80.8745 46.3526C85.6545 47.0326 88.9798 51.4579 88.3012 56.2379Z" fill="#3544A1"/>
<path d="M39.9292 114.716L35.2932 68.6032L38.5279 46.2645H79.6319C79.6319 46.2645 89.8359 66.3272 81.8839 91.9365L81.7172 115.039L39.9292 114.716Z" fill="#3544A1"/>
<path d="M79.6626 63.7497C74.8346 63.7591 70.9133 59.851 70.9053 55.023C70.8973 50.195 74.804 46.2737 79.632 46.2644C84.46 46.2564 88.3813 50.1644 88.3906 54.9924C88.3986 59.8204 84.492 63.7417 79.6626 63.7497Z" fill="#3544A1"/>
<path d="M53.1758 27.4071L53.8798 45.6338H69.0905L67.9531 38.3791L53.1758 27.4071Z" fill="#F89D95"/>
<path d="M67.0826 39.9124C67.5092 39.9524 67.8692 39.9417 68.1919 39.9071L68.6492 42.8245C61.2452 42.3485 58.8826 34.7778 58.8826 34.7778H58.8839C60.5226 36.6125 65.1346 39.7284 67.0826 39.9124Z" fill="#151719"/>
<path d="M56.4093 29.7391C56.4093 29.7391 57.364 33.0832 58.5053 34.7912C59.604 36.4365 66.3786 41.9312 70.0453 39.5218C72.852 37.6778 73.4093 32.9845 73.5506 29.7311C73.7146 25.9578 73.7707 21.6471 73.2373 18.2285L60.58 15.7205L55.9106 26.0458L56.4093 29.7391Z" fill="#F89D95"/>
<path d="M69.1491 26.0314C69.1584 26.7927 69.5891 27.4034 70.1104 27.398C70.6317 27.3914 71.0478 26.77 71.0371 26.0073C71.0291 25.2473 70.5984 24.6354 70.0771 24.642C69.5557 24.6474 69.1397 25.27 69.1491 26.0314Z" fill="#151719"/>
<path d="M63.7038 25.8019C63.7131 26.5619 64.1438 27.1739 64.6651 27.1685C65.1864 27.1619 65.6024 26.5406 65.5931 25.7792C65.5838 25.0179 65.1531 24.4046 64.6318 24.4126C64.1104 24.4179 63.6944 25.0405 63.7038 25.8019Z" fill="#151719"/>
<path d="M71.5959 21.8845C71.6999 21.8845 71.8012 21.8325 71.8612 21.7378C71.9532 21.5912 71.9092 21.3979 71.7625 21.3059C70.9545 20.7952 69.9092 20.7712 69.0398 21.2432C68.8892 21.3258 68.8332 21.5165 68.9145 21.6685C68.9985 21.8205 69.1892 21.8765 69.3398 21.7952C70.0105 21.4299 70.8119 21.4472 71.4279 21.8365C71.4799 21.8685 71.5372 21.8845 71.5959 21.8845Z" fill="#151719"/>
<path d="M66.5039 22.0005C66.5999 22.0005 66.6959 21.9565 66.7572 21.8711C66.8586 21.7311 66.8279 21.5352 66.6892 21.4338C65.8119 20.7952 64.5519 20.7405 63.6239 21.3071C63.4759 21.3978 63.4292 21.5898 63.5199 21.7378C63.6106 21.8858 63.8026 21.9312 63.9506 21.8418C64.6666 21.4045 65.6412 21.4458 66.3199 21.9405C66.3759 21.9805 66.4399 22.0005 66.5039 22.0005Z" fill="#151719"/>
<path d="M68.3731 33.8005C68.4771 33.8005 68.5811 33.7952 68.6864 33.7845C68.8584 33.7672 68.9825 33.6125 68.9638 33.4392C68.9465 33.2685 68.7984 33.1419 68.6198 33.1606C67.3678 33.2992 66.0878 32.4019 65.6598 31.0832C65.6065 30.9192 65.4291 30.8285 65.2638 30.8819C65.0998 30.9365 65.0091 31.1125 65.0638 31.2779C65.5465 32.7645 66.9331 33.8005 68.3731 33.8005Z" fill="#151719"/>
<path d="M68.5332 31.3232C68.7412 31.3232 69.0438 31.2859 69.2918 31.1033C69.5011 30.9499 69.6318 30.7206 69.6705 30.4406C69.7758 29.6632 68.7185 25.7166 68.5065 24.9339C68.4598 24.7673 68.2865 24.6672 68.1211 24.7126C67.9545 24.7579 67.8558 24.9313 67.9012 25.0979C68.3812 26.8633 69.1171 29.8526 69.0491 30.3553C69.0291 30.5033 68.9678 30.5646 68.9225 30.5979C68.7625 30.7139 68.4865 30.7006 68.3945 30.6872C68.2292 30.6606 68.0638 30.7752 68.0358 30.9459C68.0078 31.1166 68.1211 31.2766 68.2905 31.3059C68.3145 31.3099 68.4052 31.3232 68.5332 31.3232Z" fill="#151719"/>
<path d="M53.1826 16.1125C53.1826 16.1125 44.7492 13.5472 52.6252 27.6472L53.4479 34.4365L56.2333 30.5472L58.1519 27.0325L59.3906 30.2579H60.1039L59.9092 22.5632C59.9092 22.5632 62.6946 21.6312 62.5399 17.9565C62.5399 17.9565 74.9839 21.5618 76.8892 17.2045L74.6772 14.0859L73.1639 14.9005C73.1639 14.9005 75.2012 12.8632 75.3759 9.66185L72.4653 12.2232C72.4653 12.2232 74.5613 9.60321 72.4653 6.22722L68.7839 6.05254C68.7839 6.05254 67.8906 7.97383 64.7879 9.37116C61.0746 11.0432 51.2452 9.58317 53.1826 16.1125Z" fill="#151719"/>
<path d="M58.3613 28.1417C58.3613 29.8191 56.9999 31.1804 55.3213 31.1804C53.6426 31.1804 52.2812 29.8191 52.2812 28.1417C52.2812 26.4617 53.6426 25.1017 55.3213 25.1017C56.9999 25.1017 58.3613 26.4617 58.3613 28.1417Z" fill="#F89D95"/>
<path d="M62.7466 52.3979L66.0252 46.306L69.9719 52.0646C69.9719 52.0646 71.2439 47.4886 71.2373 46.2646L68.4333 41.4486L65.9346 44.9259L53.6373 39.3673L52.6252 46.2633L62.7466 52.3979Z" fill="white"/>
<path d="M60.6091 10.2832C61.0304 10.2258 61.4438 10.1658 61.8451 10.1031C61.2158 11.9285 60.3784 13.6845 59.1851 15.1871C57.6051 17.1765 55.5291 18.7965 53.1518 19.6912C51.9784 20.1338 50.7598 20.3791 49.5238 20.5125C49.3211 19.6791 49.2504 18.9978 49.2731 18.4338C51.0091 17.9911 52.6851 17.3111 54.2304 16.4044C56.7958 14.9004 58.9891 12.7778 60.6091 10.2832Z" fill="#151719"/>
<path d="M17.4612 77.7925C21.8105 79.8912 23.6345 85.1165 21.5372 89.4658C19.4385 93.8138 14.2119 95.6392 9.86385 93.5405C5.51452 91.4432 3.69053 86.2178 5.78786 81.8685C7.88652 77.5205 13.1119 75.6952 17.4612 77.7925Z" fill="#F89D95"/>
<path d="M6.87451 80.158L20.7438 63.0673L29.3425 80.2179L20.4505 91.1766L6.87451 80.158Z" fill="#F89D95"/>
<path d="M12.1265 65.3113L33.2771 48.0273L45.3318 60.5166L29.3425 80.2179L12.1265 65.3113Z" fill="#3544A1"/>
<path d="M33.0346 61.7965C29.2852 58.7538 28.7119 53.2484 31.7546 49.4991C34.7972 45.7497 40.3026 45.1778 44.0519 48.2191C47.8012 51.2618 48.3732 56.7671 45.3319 60.5165C42.2892 64.2658 36.7839 64.8391 33.0346 61.7965Z" fill="#3544A1"/>
<path d="M107.749 23.038C105.773 19.2006 103.38 9.42735 104.301 8.82468C105.221 8.22202 108.814 16.1033 108.814 16.1033L107.749 23.038Z" fill="#F89D95"/>
<path d="M107.749 23.038C106.277 15.7086 106.723 0.701991 107.82 0.231325C108.917 -0.240675 109.952 9.9073 109.952 9.9073C109.952 9.9073 109.793 0.52602 111.488 0.19402C113.183 -0.136647 112.495 9.70463 112.495 9.70463C112.495 9.70463 114.481 -0.307365 115.757 0.00730118C117.035 0.324635 114.829 10.0566 114.829 10.0566C114.829 10.0566 118.352 2.07802 119.4 2.66336C120.448 3.24736 117.479 9.76067 117.132 11.214C116.785 12.6673 121.268 14.3514 120.401 21.4967L107.749 23.038Z" fill="#F89D95"/>
<path d="M116.762 28.046C119.953 26.562 121.338 22.7727 119.854 19.5807C118.37 16.39 114.581 15.0047 111.389 16.4887C108.198 17.9727 106.813 21.762 108.297 24.954C109.781 28.146 113.57 29.53 116.762 28.046Z" fill="#F89D95"/>
<path d="M20.2919 79.9685L43.6399 110.767L33.9732 119.075L7.0332 91.3659L20.2919 79.9685Z" fill="#F89D95"/>
<path d="M7.96398 79.038C11.6253 75.89 17.1453 76.3073 20.292 79.9686C23.44 83.63 23.0227 89.15 19.3613 92.298C15.7 95.4447 10.18 95.0273 7.03331 91.366C3.88531 87.7047 4.30264 82.1846 7.96398 79.038Z" fill="#F89D95"/>
<path d="M34.6533 110.088C37.3213 107.794 41.3453 108.098 43.64 110.767C45.9333 113.437 45.6293 117.46 42.96 119.755C40.2907 122.048 36.268 121.745 33.9733 119.075C31.68 116.406 31.984 112.383 34.6533 110.088Z" fill="#F89D95"/>
<path d="M43.6399 110.767C47.4146 112.862 54.8332 119.659 54.4012 120.672C53.9706 121.684 46.6052 117.126 46.6052 117.126L43.6399 110.767Z" fill="#F89D95"/>
<path d="M43.6398 110.767C48.9345 116.045 56.8985 128.771 56.2478 129.773C55.5958 130.774 49.0998 122.91 49.0998 122.91C49.0998 122.91 54.4425 130.623 53.2171 131.841C51.9931 133.058 47.0985 124.49 47.0985 124.49C47.0985 124.49 51.0078 133.919 49.7705 134.366C48.5331 134.814 44.9611 125.494 44.9611 125.494C44.9611 125.494 46.4638 134.086 45.2665 134.182C44.0705 134.278 42.9225 127.213 42.4038 125.811C41.8851 124.409 37.2211 125.499 33.9731 119.075L43.6398 110.767Z" fill="#F89D95"/>
<path d="M33.3638 111.607C31.5331 114.614 32.4864 118.535 35.4931 120.366C38.4998 122.195 42.4198 121.242 44.2504 118.235C46.0798 115.23 45.1264 111.308 42.1198 109.478C39.1144 107.648 35.1931 108.602 33.3638 111.607Z" fill="#F89D95"/>
</svg>
